<svg xmlns="http://www.w3.org/2000/svg" width="600" height="300" viewBox="0 0 128 122"><defs><style>.cls-1{fill:#4f4f4f;}</style></defs><title>Ativo 1</title><g id="Camada_2" data-name="Camada 2"><g id="Camada_1-2" data-name="Camada 1"><path class="cls-1" d="M57.73,0a12.8,12.8,0,0,0,2.77.26A11.59,11.59,0,0,0,62.84.6a.27.27,0,0,0,.3.08h.14l2.78.56A24.56,24.56,0,0,0,68.84,2l5.55,2a26.32,26.32,0,0,0,2.78,1.25h0l.29.14h0a23.22,23.22,0,0,0,2.5,1.35C81.82,7.8,83.68,9,85.49,10.29a2.44,2.44,0,0,0,.79.59,13.39,13.39,0,0,0,2,1.65,6.56,6.56,0,0,0,1.24,1.11A13,13,0,0,0,91,15.15a8.88,8.88,0,0,0,1.23,1.26,9.23,9.23,0,0,0,1.51,1.7,3.79,3.79,0,0,0,.86,1.06,19.5,19.5,0,0,0,1.79,2.36.63.63,0,0,0,.28.42l3.35,5.54,1.26,2.64.11.16h0a3.3,3.3,0,0,0,.26.77c.11.18,0,.62.46.5,1.9-.7,3.67-1.7,5.54-2.45,1.26-.17,1.7.09,2.21,1.31q-.07,1.31-.14,2.62a13.48,13.48,0,0,0-.26,2.78,4.22,4.22,0,0,0-.15,1.52,1.26,1.26,0,0,0-.11.84v.42a14,14,0,0,0-.27,2.78,9.53,9.53,0,0,0-.18,2.18.43.43,0,0,0-.08.44v.15a20.76,20.76,0,0,0-.26,2.78,14.18,14.18,0,0,0-.2,2.47,7.79,7.79,0,0,1-.53,2,1.81,1.81,0,0,1-2.21.32c-.18-.09-.34-.25-.56-.24v0l-.15-.14h0l-.15-.12c-1.69-1.35-3.47-2.57-5.27-3.76a2.32,2.32,0,0,0-.81-.57,10.32,10.32,0,0,0-2-1.39c-1.8-1.39-3.67-2.69-5.56-4l-.12,0-.16-.13h0a2,2,0,0,0-.69-.55,3.05,3.05,0,0,1-1.43-1.69,2,2,0,0,1,1.36-2,3.47,3.47,0,0,0,1-.53,6.47,6.47,0,0,0,1.8-.83h0a.3.3,0,0,0,.28-.14,1.15,1.15,0,0,0,.69-.29l.83-.33a.36.36,0,0,0,.22-.55,30,30,0,0,0-2.11-4.26,15.55,15.55,0,0,0-1.53-2.69,35.12,35.12,0,0,0-4.47-5.76,7.41,7.41,0,0,0-1.24-1.28,3.72,3.72,0,0,0-1-.94l-.14-.14h0l-.14-.14h0l-.14-.14h0a5.67,5.67,0,0,0-1.39-1.23h0a.27.27,0,0,0-.25-.16h0l-.15-.15h0l-.15-.14a24.19,24.19,0,0,0-5-3.5h0L77,13.88a1,1,0,0,0-.52-.28,8.87,8.87,0,0,0-2.13-1.19,14.85,14.85,0,0,0-2.77-1.27.59.59,0,0,0-.49-.15l-.21-.13h0a6.26,6.26,0,0,0-1.71-.68,14.7,14.7,0,0,0-3.27-1h0C65.77,9,65.56,9,65.36,9a.05.05,0,0,0-.08,0l-.19-.08-.26,0a.27.27,0,0,0-.29-.1l-.37-.06a3.39,3.39,0,0,0-.51-.2,48,48,0,0,0-8-1,39.72,39.72,0,0,0-7,.41,25.68,25.68,0,0,0-4.93,1l-.24.05a1,1,0,0,0-.75.23l-.22,0a.3.3,0,0,0-.3.11l-.25,0a.36.36,0,0,0-.39.13h0a.26.26,0,0,0-.29.11h0a27.46,27.46,0,0,0-6.12,2.5.23.23,0,0,0-.12,0l-.15.1h0a.32.32,0,0,0-.29.14.19.19,0,0,0-.12,0,.49.49,0,0,0-.42.24,22.67,22.67,0,0,0-4,2.47,4.89,4.89,0,0,0-1.55,1.12,4,4,0,0,0-1.23,1,9.88,9.88,0,0,0-2.1,1.82,1.38,1.38,0,0,0-.65.58,12.19,12.19,0,0,0-2.1,2.2h0l-.16.14a1.56,1.56,0,0,0-.55.66,8.82,8.82,0,0,0-1.64,2,7.12,7.12,0,0,0-1.11,1.53A3.4,3.4,0,0,0,18,27.5a14.57,14.57,0,0,0-1.65,2.78.08.08,0,0,0,0,.09l-.12.18a.07.07,0,0,0,0,.09l-.14.19h0A8.53,8.53,0,0,0,15,33.05a4.76,4.76,0,0,1-1.7,1.8l-1,.32a.29.29,0,0,0-.3.09H11a.28.28,0,0,0-.3-.08h-.15a.63.63,0,0,0-.17-.12,3.78,3.78,0,0,1-2.31-5.21c.33-.78.71-1.55,1.06-2.33,1-1.88,2.17-3.72,3.33-5.54a.1.1,0,0,0,0-.11l.13-.17a2.79,2.79,0,0,0,.7-1,9.14,9.14,0,0,0,1.19-1.54A56.49,56.49,0,0,1,24.56,9.61a18.39,18.39,0,0,0,2.21-1.53L26.92,8l.28-.17h0l2.64-1.53L30,6.15h0a6.36,6.36,0,0,0,1.66-.85,3.7,3.7,0,0,0,1.11-.54,11.4,11.4,0,0,0,2.21-1,.36.36,0,0,0,.3-.14h.06l.06,0,5.94-2A18.48,18.48,0,0,0,43.85,1L46.62.55,49.67.16C52.36-.08,55,0,57.73,0"/><path class="cls-1" d="M66.06,101.24l-2.23.45c-2.44.38-4.88.68-7.35.81a8.34,8.34,0,0,0-1.67,0H52.87c-2.09-.11-4.17-.35-6.25-.58a19.89,19.89,0,0,0-2.6-.47,21.29,21.29,0,0,0-2.93-.68h0l-.15-.1-2.64-.8-.37-.07a12.53,12.53,0,0,0-2.41-.93l-.23,0-.18-.12a13.5,13.5,0,0,0-2.35-1l-5.57-3h0l-.13-.1a.13.13,0,0,0-.12,0l-.18-.13h0l-.27-.17-.15-.11a14.3,14.3,0,0,0-1.93-1.35.12.12,0,0,0-.12,0l-.17-.13a4.59,4.59,0,0,0-.35-.32,49.59,49.59,0,0,1-8.3-7.83c-1-1.24-2-2.52-3-3.79l-.14-.15h0a.31.31,0,0,0-.15-.27h0a19.84,19.84,0,0,0-1.65-2.55.22.22,0,0,0-.12-.23L9,74.83l-.11-.15h0l-.65-1.49c-.14-.31-.32-.43-.62-.18-1,.34-1.92.88-2.89,1.27C3.51,74.77,2.41,75.67,1,75.4l0,0H.87l-.19-.13a.9.9,0,0,0-.41-.42l-.14-.15h0A7.47,7.47,0,0,1,0,72.78a.42.42,0,0,0,.08-.44l0-.42a16.33,16.33,0,0,0,.27-2.78,12,12,0,0,0,.2-2.32,23.67,23.67,0,0,0,.36-3.37A15.41,15.41,0,0,0,1.13,61,12,12,0,0,0,1.39,58a21.71,21.71,0,0,0,.28-2.63c.23-.47.1-1,.23-1.48a1.6,1.6,0,0,1,2.49-1.11c.94.54,1.79,1.2,2.68,1.82a1.85,1.85,0,0,0,.65.37h0l.15.15.15.11A19.88,19.88,0,0,0,10.55,57a6.18,6.18,0,0,0,1.47,1,4.35,4.35,0,0,0,1.3.94c.34.26.67.55,1,.79,1.51,1,2.93,2.18,4.51,3.12v0L19,63a.44.44,0,0,0,.4.28l.16.12a.24.24,0,0,0,.24.16c.15.13.3.28.46.4a1.93,1.93,0,0,1,.86,2.36c-.46.75-1.33.91-2,1.39a17.56,17.56,0,0,0-3.06,1.39h0l-.83.31a.27.27,0,0,0-.15.44,8.85,8.85,0,0,0,1,1.8.23.23,0,0,0,.11.24,16.43,16.43,0,0,0,1.6,2.76,6.94,6.94,0,0,0,1.06,1.56,4.83,4.83,0,0,0,.87,1.22,14.16,14.16,0,0,0,1.91,2.37,1,1,0,0,0,.39.43,15.06,15.06,0,0,0,2.39,2.48.49.49,0,0,0,.28.28,12.5,12.5,0,0,0,2.47,2.11h0l.15.14h0l.15.14a1.22,1.22,0,0,0,.54.41A7.36,7.36,0,0,0,30,87.2h0l.15.14a7.49,7.49,0,0,0,1.59,1.07,20.94,20.94,0,0,0,3.81,2v0l.15.12,0,0h.05l.18.11.05,0H36a.77.77,0,0,0,.59.28h0a.29.29,0,0,0,.29.13l0,0h0l.19.12h0a1.9,1.9,0,0,0,1.09.44h0a.3.3,0,0,0,.29.13l0,0,0,0,.19.11.06,0H39a.3.3,0,0,0,.29.13l0,0h.05a1,1,0,0,0,.75.28l0,0,0,0,.2.11.06,0h.07a.54.54,0,0,0,.45.15.13.13,0,0,0,.09.05A22.34,22.34,0,0,0,46.21,94l.2,0a19.5,19.5,0,0,0,5,.67.62.62,0,0,0,.57.08l.88,0a.67.67,0,0,0,.77,0,29.94,29.94,0,0,0,3.92,0c.43,0,.87,0,1.3-.09A25.46,25.46,0,0,0,63.28,94h.14a.27.27,0,0,0,.29-.09,9.09,9.09,0,0,0,2.34-.57,3.52,3.52,0,0,0,1.39-.42.37.37,0,0,0,.32-.13l.24,0,.19-.11,0,0,0,0a.38.38,0,0,0,.33-.14l.23,0a11.17,11.17,0,0,0,2.77-1.09,13.74,13.74,0,0,0,2.78-1.27A12.52,12.52,0,0,0,77,88.59l.16-.11a27.46,27.46,0,0,0,5.65-4.06A7.46,7.46,0,0,0,84.39,83a4,4,0,0,0,1-.95l.15-.16h0a9.4,9.4,0,0,0,1.61-1.68,5.21,5.21,0,0,0,1-1.24l.14-.15h0a4.82,4.82,0,0,0,1.1-1.39h0a.29.29,0,0,0,.16-.26h0l.14-.15a25.43,25.43,0,0,0,3.23-5.11,6.87,6.87,0,0,0,1-1.89,4.51,4.51,0,0,1,2.71-2.86,3.86,3.86,0,0,1,4.56,2,5.68,5.68,0,0,1,.29,2.75l-1.24,2.64-3.34,5.68a.56.56,0,0,0-.27.41A25.27,25.27,0,0,0,94.81,83a7.32,7.32,0,0,0-1,1.24,6.69,6.69,0,0,0-1.27,1.51h0l-.16.14-.25.26-.15.17a4.87,4.87,0,0,0-.95,1,8.28,8.28,0,0,0-1.26,1.24,12.42,12.42,0,0,0-1.52,1.39,9.93,9.93,0,0,0-1.67,1.39l-1.1.85a31,31,0,0,0-2.68,1.89l-.16.12a20.1,20.1,0,0,0-2.58,1.59l-.15.13v0a7.87,7.87,0,0,0-1.92,1h0l-.18.13a.11.11,0,0,0-.11,0l-.16.11a.13.13,0,0,0-.12,0l-.17.1a.09.09,0,0,0-.1,0l-2.77,1.26a16.54,16.54,0,0,0-2.69,1.06.09.09,0,0,0-.09,0,18.37,18.37,0,0,0-3,.93l-2.59.64"/><path class="cls-1" d="M53.48,52.4a13.61,13.61,0,0,1-9.25-2.71A13.49,13.49,0,0,1,48.9,25.8c.6-.14.75-.43.73-1,0-.83,0-1.66,0-2.49a4.58,4.58,0,1,1,9.16-.11c0,.89,0,1.79,0,2.68,0,.57.21.78.72.91a13.15,13.15,0,0,1,8.94,7.44,4.64,4.64,0,0,1-2,6.24,4.55,4.55,0,0,1-6.19-2.05,4.65,4.65,0,0,0-4.82-2.87c-1,.07-2.11,0-3.16,0a4.31,4.31,0,0,0-4.43,4.2,4.38,4.38,0,0,0,4.37,4.48c2.57.06,5.16-.2,7.69.59a13.07,13.07,0,0,1,9.37,10,13.44,13.44,0,0,1-9.75,16,.9.9,0,0,0-.78,1,14,14,0,0,1-.16,3.71,4.57,4.57,0,0,1-9-1.12,23.26,23.26,0,0,1,0-2.39c.08-.83-.24-1.16-1-1.38a13,13,0,0,1-8.26-6.62,5.63,5.63,0,0,1-.92-3.9,4.68,4.68,0,0,1,3.8-3.7,4.44,4.44,0,0,1,4.71,2.38,5.64,5.64,0,0,0,1.79,2.43,4.1,4.1,0,0,0,2.32.77c1.47,0,2.94,0,4.4,0a4.29,4.29,0,0,0,4.07-4.16,4.43,4.43,0,0,0-4-4.51c-.89,0-1.79,0-3.08,0"/></g></g></svg>