<svg xmlns="http://www.w3.org/2000/svg" width="600" height="300" viewBox="0 0 128 122"><defs><style>.cls-1{fill:#4f4f4f;}</style></defs><title>estoques</title><g id="Camada_2" data-name="Camada 2"><g id="Camada_1-2" data-name="Camada 1"><path class="cls-1" d="M57.73,0a12.8,12.8,0,0,0,2.77.26A11.58,11.58,0,0,0,62.84.6a.27.27,0,0,0,.3.08h.14l2.78.56A24.51,24.51,0,0,0,68.84,2l5.55,2a26.5,26.5,0,0,0,2.78,1.25h0l.29.14h0a23.33,23.33,0,0,0,2.5,1.35C81.82,7.8,83.68,9,85.49,10.29a2.44,2.44,0,0,0,.79.59,13.39,13.39,0,0,0,2,1.65,6.56,6.56,0,0,0,1.24,1.11A12.89,12.89,0,0,0,91,15.15a8.87,8.87,0,0,0,1.23,1.26,9.24,9.24,0,0,0,1.52,1.7,3.77,3.77,0,0,0,.86,1.06,19.29,19.29,0,0,0,1.79,2.36.62.62,0,0,0,.28.42l3.35,5.54,1.26,2.64.11.16h0a3.39,3.39,0,0,0,.26.77c.11.18,0,.62.46.5,1.9-.7,3.67-1.7,5.54-2.45,1.26-.17,1.7.09,2.2,1.31l-.13,2.62a13.49,13.49,0,0,0-.26,2.78,4.2,4.2,0,0,0-.15,1.52,1.26,1.26,0,0,0-.11.84v.42a13.94,13.94,0,0,0-.27,2.78,9.52,9.52,0,0,0-.18,2.18.43.43,0,0,0-.08.44v.15a20.75,20.75,0,0,0-.27,2.78,14.19,14.19,0,0,0-.2,2.47,7.79,7.79,0,0,1-.53,2,1.81,1.81,0,0,1-2.21.32c-.18-.09-.34-.25-.56-.24v0l-.15-.14h0l-.15-.12c-1.69-1.35-3.47-2.57-5.27-3.76a2.31,2.31,0,0,0-.81-.57,10.32,10.32,0,0,0-2-1.39c-1.8-1.39-3.67-2.69-5.56-4l-.12,0-.16-.13h0a2,2,0,0,0-.69-.55,3.05,3.05,0,0,1-1.43-1.69,2,2,0,0,1,1.36-2,3.47,3.47,0,0,0,1-.53,6.47,6.47,0,0,0,1.8-.83h0a.3.3,0,0,0,.28-.14,1.15,1.15,0,0,0,.69-.29l.83-.33a.36.36,0,0,0,.22-.55,29.87,29.87,0,0,0-2.11-4.26,15.48,15.48,0,0,0-1.53-2.69,35.11,35.11,0,0,0-4.47-5.76,7.49,7.49,0,0,0-1.24-1.28,3.73,3.73,0,0,0-1-.94l-.14-.14h0l-.14-.14h0l-.14-.14h0a5.68,5.68,0,0,0-1.39-1.23h0a.27.27,0,0,0-.25-.16h0l-.15-.15h0l-.15-.14a24.22,24.22,0,0,0-5-3.5h0L77,13.88a1,1,0,0,0-.52-.28,8.84,8.84,0,0,0-2.13-1.19,14.85,14.85,0,0,0-2.77-1.27.59.59,0,0,0-.49-.15l-.21-.13h0a6.26,6.26,0,0,0-1.71-.68,14.7,14.7,0,0,0-3.27-1h0C65.77,9,65.56,9,65.36,9a.05.05,0,0,0-.08,0l-.2-.08-.26,0a.27.27,0,0,0-.29-.1l-.37-.06a3.39,3.39,0,0,0-.51-.2,48,48,0,0,0-8-1,39.71,39.71,0,0,0-7,.41,25.67,25.67,0,0,0-4.92,1l-.24.05a1,1,0,0,0-.75.23l-.22,0a.3.3,0,0,0-.3.11l-.26,0a.36.36,0,0,0-.39.13h0a.26.26,0,0,0-.29.11h0a27.47,27.47,0,0,0-6.12,2.5.23.23,0,0,0-.12,0l-.15.1h0a.33.33,0,0,0-.29.14.2.2,0,0,0-.12,0,.49.49,0,0,0-.42.24,22.67,22.67,0,0,0-4,2.47,4.88,4.88,0,0,0-1.55,1.12,4,4,0,0,0-1.23,1,9.88,9.88,0,0,0-2.1,1.82,1.38,1.38,0,0,0-.65.58,12.22,12.22,0,0,0-2.1,2.2h0l-.16.14a1.57,1.57,0,0,0-.55.66,8.82,8.82,0,0,0-1.64,2,7.09,7.09,0,0,0-1.11,1.53A3.42,3.42,0,0,0,18,27.5a14.62,14.62,0,0,0-1.65,2.78.08.08,0,0,0,0,.09l-.12.18a.07.07,0,0,0,0,.09l-.14.19h0A8.5,8.5,0,0,0,15,33.05a4.76,4.76,0,0,1-1.71,1.8l-1,.32a.29.29,0,0,0-.3.09H11a.28.28,0,0,0-.3-.08h-.15a.63.63,0,0,0-.16-.12,3.78,3.78,0,0,1-2.31-5.21c.33-.78.71-1.55,1.06-2.33,1-1.88,2.17-3.72,3.33-5.54a.1.1,0,0,0,0-.11l.13-.17a2.81,2.81,0,0,0,.7-1,9.13,9.13,0,0,0,1.19-1.54,56.52,56.52,0,0,1,10-9.58,18.41,18.41,0,0,0,2.21-1.53L26.92,8l.28-.17h0l2.64-1.53L30,6.15h0a6.36,6.36,0,0,0,1.66-.85,3.71,3.71,0,0,0,1.11-.54,11.45,11.45,0,0,0,2.21-1,.36.36,0,0,0,.3-.14h.06l.05,0,5.94-2A18.53,18.53,0,0,0,43.85,1L46.62.55,49.67.16C52.36-.08,55,0,57.73,0"/><path class="cls-1" d="M66.06,101.24l-2.23.45c-2.44.38-4.88.68-7.35.81a8.35,8.35,0,0,0-1.67,0H52.87c-2.09-.11-4.17-.35-6.25-.58a19.89,19.89,0,0,0-2.6-.47,21.27,21.27,0,0,0-2.93-.68h0l-.15-.1-2.64-.8-.37-.07a12.55,12.55,0,0,0-2.41-.93l-.23,0-.18-.12a13.53,13.53,0,0,0-2.35-1l-5.57-3h0l-.13-.1a.13.13,0,0,0-.12,0l-.18-.13h0l-.27-.17-.14-.11a14.31,14.31,0,0,0-1.94-1.35.12.12,0,0,0-.12,0l-.17-.13a4.59,4.59,0,0,0-.35-.32,49.58,49.58,0,0,1-8.3-7.83c-1-1.24-2-2.52-3-3.79l-.14-.15h0a.31.31,0,0,0-.15-.27h0a19.84,19.84,0,0,0-1.65-2.55.22.22,0,0,0-.12-.23L9,74.83l-.11-.15h0l-.65-1.49c-.14-.31-.32-.43-.62-.18-1,.34-1.92.88-2.89,1.27C3.51,74.77,2.41,75.67,1,75.4l0,0H.87l-.19-.13a.9.9,0,0,0-.41-.42l-.14-.15h0A7.43,7.43,0,0,1,0,72.78a.42.42,0,0,0,.08-.44l0-.42a16.24,16.24,0,0,0,.27-2.78,11.87,11.87,0,0,0,.2-2.32,23.53,23.53,0,0,0,.36-3.37A15.64,15.64,0,0,0,1.13,61,12,12,0,0,0,1.39,58a21.51,21.51,0,0,0,.28-2.63c.23-.47.1-1,.23-1.48a1.6,1.6,0,0,1,2.49-1.11c.93.54,1.79,1.2,2.68,1.82a1.85,1.85,0,0,0,.65.37h0l.15.15.15.11A19.74,19.74,0,0,0,10.55,57a6.16,6.16,0,0,0,1.47,1,4.34,4.34,0,0,0,1.29.94c.34.26.67.55,1,.79,1.51,1,2.93,2.18,4.51,3.12v0L19,63a.44.44,0,0,0,.4.28l.16.12a.24.24,0,0,0,.24.16c.15.13.3.28.46.4a1.93,1.93,0,0,1,.86,2.36c-.46.75-1.33.91-2,1.39a17.57,17.57,0,0,0-3.06,1.39h0l-.83.31a.27.27,0,0,0-.15.44,8.81,8.81,0,0,0,1,1.8.23.23,0,0,0,.11.24,16.36,16.36,0,0,0,1.6,2.76,6.91,6.91,0,0,0,1.06,1.56,4.81,4.81,0,0,0,.87,1.22,14.2,14.2,0,0,0,1.91,2.37,1,1,0,0,0,.39.43,15.06,15.06,0,0,0,2.39,2.48.49.49,0,0,0,.28.28,12.5,12.5,0,0,0,2.47,2.11h0l.15.14h0l.15.14a1.22,1.22,0,0,0,.54.41A7.35,7.35,0,0,0,30,87.2h0l.15.14a7.49,7.49,0,0,0,1.59,1.07,20.9,20.9,0,0,0,3.81,2v0l.15.12,0,0h.05l.17.11.05,0H36a.76.76,0,0,0,.59.28h0a.29.29,0,0,0,.29.13l0,0h0l.19.12h0a1.91,1.91,0,0,0,1.09.44h0a.3.3,0,0,0,.29.13l0,0,0,0,.19.11.06,0H39a.3.3,0,0,0,.29.13l0,0h.05a1,1,0,0,0,.75.28l0,0,0,0,.2.11.06,0h.07a.54.54,0,0,0,.45.15.13.13,0,0,0,.09.05A22.33,22.33,0,0,0,46.21,94l.2,0a19.51,19.51,0,0,0,5,.67.62.62,0,0,0,.57.08l.88,0a.67.67,0,0,0,.77,0,30,30,0,0,0,3.92,0c.43,0,.87,0,1.3-.09A25.49,25.49,0,0,0,63.28,94h.14a.27.27,0,0,0,.29-.09,9.1,9.1,0,0,0,2.34-.57,3.52,3.52,0,0,0,1.39-.42.37.37,0,0,0,.32-.13l.24,0,.19-.11,0,0,0,0a.39.39,0,0,0,.33-.14l.23,0a11.19,11.19,0,0,0,2.77-1.09,13.73,13.73,0,0,0,2.78-1.27A12.51,12.51,0,0,0,77,88.59l.16-.11a27.44,27.44,0,0,0,5.65-4.06A7.46,7.46,0,0,0,84.39,83a4,4,0,0,0,1-.95l.15-.16h0a9.4,9.4,0,0,0,1.61-1.68,5.21,5.21,0,0,0,1-1.24l.14-.15h0a4.84,4.84,0,0,0,1.1-1.39h0a.29.29,0,0,0,.16-.26h0l.14-.15a25.38,25.38,0,0,0,3.23-5.11,6.85,6.85,0,0,0,1-1.89,4.51,4.51,0,0,1,2.71-2.86,3.86,3.86,0,0,1,4.56,2,5.68,5.68,0,0,1,.29,2.75l-1.24,2.64-3.34,5.68a.56.56,0,0,0-.27.41A25.28,25.28,0,0,0,94.81,83a7.31,7.31,0,0,0-1,1.24,6.72,6.72,0,0,0-1.27,1.51h0l-.16.14-.25.26-.14.17a4.87,4.87,0,0,0-.95,1,8.28,8.28,0,0,0-1.26,1.24,12.43,12.43,0,0,0-1.52,1.39,9.93,9.93,0,0,0-1.67,1.39l-1.1.85a31.21,31.21,0,0,0-2.68,1.89l-.16.12a20.11,20.11,0,0,0-2.58,1.59l-.15.13v0a7.87,7.87,0,0,0-1.92,1h0l-.18.13a.11.11,0,0,0-.11,0l-.16.11a.13.13,0,0,0-.12,0l-.17.1a.09.09,0,0,0-.1,0l-2.77,1.26a16.54,16.54,0,0,0-2.69,1.06.09.09,0,0,0-.09,0,18.34,18.34,0,0,0-3,.93l-2.59.64"/><path class="cls-1" d="M82.9,41.28l.75-.31a1.06,1.06,0,0,1,1.58.41c0,7.22,0,14.45,0,21.68a3.07,3.07,0,0,1-1.63,3,1,1,0,0,0-.19.19,1.23,1.23,0,0,0-.7.4,15,15,0,0,0-2.62,1.55l-.15.13v0a3.85,3.85,0,0,0-1.51.85h0l-.18.13a.11.11,0,0,0-.11,0l-.13.11h0a.3.3,0,0,0-.27.15.94.94,0,0,0-.56.31c-1.89,1-3.75,2.11-5.56,3.28a11.52,11.52,0,0,0-2.35,1.4l-.28.14-.16.12h0a10,10,0,0,0-2.2,1.29l-.18.12a.11.11,0,0,0-.11,0l-.14.11-.13,0a7.81,7.81,0,0,0-1.8,1.08h0l-.18.13a.12.12,0,0,0-.11,0l-.13.11h0a.3.3,0,0,0-.27.15h0l-.18.13a.08.08,0,0,0-.1,0c-1.47.71-2.82,1.64-4.24,2.44a1.84,1.84,0,0,1-1.3.31l-.38-.55q0-1.38-.05-2.77t0-2.78q0-1.39,0-2.77t0-2.78q0-1.39,0-2.77t0-2.78q0-1.39,0-2.77t0-2.78V55.26L57.59,54l.15-.28h0a8.73,8.73,0,0,1,1.95-1.4h0a.34.34,0,0,0,.29-.14l.14,0,.16-.1a.14.14,0,0,0,.11,0l.14-.11h0a15.35,15.35,0,0,0,2.76-1.28,7.12,7.12,0,0,0,1.87-.92h0l0,0a.41.41,0,0,0,.39-.17h0l.18-.1.26-.13A13.11,13.11,0,0,0,68.69,48,9.32,9.32,0,0,0,71,46.93h0l.2-.12a.32.32,0,0,0,.36-.14,16.1,16.1,0,0,0,2.8-1.34,9.64,9.64,0,0,0,2.37-1.14.42.42,0,0,0,.38-.16,24.8,24.8,0,0,0,2.92-1.38l2.47-1.17.35-.2"/><path class="cls-1" d="M84.57,33.06a3.31,3.31,0,0,1,.5,3.05,4.36,4.36,0,0,1-2.23,1.76c-1,.43-2,.95-3.06,1.43a19.61,19.61,0,0,0-2.49,1.13l-.16.12h0a5.42,5.42,0,0,0-1.83.83,2.06,2.06,0,0,0-.94.41A16.71,16.71,0,0,0,71.61,43a13.5,13.5,0,0,0-2.48,1.13h0l-.2.12a.06.06,0,0,0-.08,0,17.77,17.77,0,0,0-2.78,1.26c-1.89.75-3.72,1.63-5.55,2.52-.3.12-.6.22-.89.36a9.71,9.71,0,0,1-6.06,1.4,0,0,0,0,0-.07,0,.36.36,0,0,0-.33-.11.13.13,0,0,0-.12,0,2.26,2.26,0,0,0-1-.41,8.08,8.08,0,0,0-2.18-1,65.56,65.56,0,0,0-6.15-2.88.09.09,0,0,0-.1,0l-.17-.11a16.43,16.43,0,0,0-2.37-1.11.16.16,0,0,0-.11,0A14.31,14.31,0,0,0,38.3,42.9a15.1,15.1,0,0,0-2.77-1.26h0l-.14-.1-.13,0a13.8,13.8,0,0,0-2.51-1.21A22.54,22.54,0,0,0,30,39a3,3,0,0,0-1-.44,5.34,5.34,0,0,0-1.82-.81,11,11,0,0,1-1.77-1.15,2.74,2.74,0,0,1,.48-4.21c.4-.28.88-.41,1.29-.65,1.87-.7,3.74-1.39,5.56-2.2a18.29,18.29,0,0,0,2.78-1.09,10.15,10.15,0,0,0,2.4-1,.93.93,0,0,0,.7-.28h0l0,0A.35.35,0,0,0,39,27.1h.06l0,0a.29.29,0,0,0,.28-.12l.14,0,.18-.1h0l0,0a.31.31,0,0,0,.29-.13h.07l.06,0,.19-.11,0,0,0,0a.37.37,0,0,0,.32-.14l.24,0c.75-.27,1.52-.51,2.26-.82,1.24-.53,2.57-.84,3.76-1.49a10,10,0,0,0,2.31-.8c.24-.07.49-.12.73-.21a36.57,36.57,0,0,1,4.55-1.4,6,6,0,0,1,2,.38l3.87,1.28a25,25,0,0,0,2.77,1c1.81.8,3.65,1.49,5.52,2.1h0l.15.1c.74.3,1.48.62,2.22.91a34,34,0,0,0,3.2,1.2,1,1,0,0,0,.78.28.38.38,0,0,0,.33.14h0a.28.28,0,0,0,.28.13l0,0h.05l.17.11.06,0h.07a.32.32,0,0,0,.3.13l0,0h0l.18.11a.15.15,0,0,0,.12,0,8.86,8.86,0,0,0,1.89.82c1.41.55,2.77,1.24,4.24,1.65a.09.09,0,0,0,.1,0,.37.37,0,0,0,.32.14l1.16.83m-47.39.13h0a.37.37,0,0,0-.32.14.1.1,0,0,0-.11,0,.32.32,0,0,0-.3.12.14.14,0,0,0-.12,0l-.17.11a.08.08,0,0,0-.09,0,.32.32,0,0,0-.31.13.13.13,0,0,0-.12,0c-1,.23-1.87.71-3,1.1,1,.49,1.9.92,2.78,1.29a17.13,17.13,0,0,0,2.84,1.23v0l.15.12c1.76.94,3.58,1.74,5.4,2.54a17.68,17.68,0,0,0,2.77,1.24,16.1,16.1,0,0,0,2.93,1.37,16.14,16.14,0,0,0,2.64,1.24,1.46,1.46,0,0,0,.67.3A3.85,3.85,0,0,0,55,45a4.27,4.27,0,0,0,2.21-.82h0l.2-.12a.34.34,0,0,0,.36-.13,18.58,18.58,0,0,0,2.78-1.26,13.8,13.8,0,0,0,2.67-1.23.15.15,0,0,0,.1,0,12.25,12.25,0,0,0,2.36-1.1.34.34,0,0,0,.3-.14H66l.06,0c1.89-.76,3.72-1.63,5.54-2.51l4.83-2.17c.17-.08.39-.19.36-.36s-.24-.27-.4-.33c-.66-.27-1.33-.5-2-.75-1.9-.88-3.87-1.61-5.84-2.3a.11.11,0,0,0-.12,0,.34.34,0,0,0-.31-.14,1.19,1.19,0,0,0-.78-.28l-.19-.11a.14.14,0,0,0-.13,0,.3.3,0,0,0-.29-.12.1.1,0,0,0-.1,0,62,62,0,0,0-6-2.35,16.75,16.75,0,0,0-3.05-1.11.11.11,0,0,0-.1,0,6.2,6.2,0,0,0-2.71-.84,42.06,42.06,0,0,0-5.38,1.86,9.65,9.65,0,0,0-2.09.8.34.34,0,0,0-.31.13.11.11,0,0,0-.12,0,7.19,7.19,0,0,0-2.11.81.1.1,0,0,0-.11,0,.29.29,0,0,0-.28.12.38.38,0,0,0-.4.15,17,17,0,0,0-2.92,1.1,12.1,12.1,0,0,0-2.5,1,.29.29,0,0,0-.29.13h0a1.13,1.13,0,0,0-.81.3h0a.29.29,0,0,0-.29.13"/><path class="cls-1" d="M24.71,64.13l0-.26q0-8.46,0-16.93c0-1.67,0-3.33,0-5,0-1,.53-1.38,1.48-1l1,.41a.12.12,0,0,0,.1,0,13.42,13.42,0,0,0,2.81,1.36A21.4,21.4,0,0,0,32.75,44l0,0h0l.19.12h0a13.22,13.22,0,0,0,2.63,1.24,16.69,16.69,0,0,0,2.62,1.29,1.12,1.12,0,0,0,.67.27A8.65,8.65,0,0,0,41.08,48a20.48,20.48,0,0,0,2.77,1.3.8.8,0,0,0,.56.25,9.86,9.86,0,0,0,2.22,1.09l.06,0h.06a.34.34,0,0,0,.3.14h0a.31.31,0,0,0,.29.15h0a.3.3,0,0,0,.29.14,5.61,5.61,0,0,0,1.78.85h0l.16.12a3.29,3.29,0,0,0,.95.43,6.67,6.67,0,0,1,1.67,1.26,5.67,5.67,0,0,1,.44,1.5q0,1.39,0,2.78V77.47q0,1.38,0,2.76h0l-.1.15-.31.4a1.92,1.92,0,0,1-1.43-.37C49.38,79.6,48,78.82,46.63,78a2.85,2.85,0,0,0-1.06-.59,6.89,6.89,0,0,0-1.72-1,22.16,22.16,0,0,0-2.76-1.6l-.16-.09a15.34,15.34,0,0,0-2.62-1.55c-1.8-1.18-3.67-2.25-5.56-3.29a4.67,4.67,0,0,0-1.33-.75A3.55,3.55,0,0,0,30,68.26a17.24,17.24,0,0,0-2.8-1.64.48.48,0,0,0-.42-.26,4.59,4.59,0,0,1-1.95-1.94.3.3,0,0,0-.12-.3"/></g></g></svg>