<svg xmlns="http://www.w3.org/2000/svg" width="200" height="100" viewBox="0 0 50 50"><defs><style>.cls-1{fill:#88e692;}</style></defs><title>Fokus</title><g id="Camada_2" data-name="Camada 2"><g id="Camada_1-2" data-name="Camada 1"><path class="cls-1" d="M50.32,24.61q-3.41-8.29-6.91-16.55a2.15,2.15,0,0,0-1-1Q34.12,3.52,25.82.11a1.77,1.77,0,0,0-1.22,0Q16.27,3.54,8,7.06A1.92,1.92,0,0,0,7,8Q3.53,16.28.11,24.62a1.78,1.78,0,0,0,0,1.22Q3.51,34.18,7,42.49a1.79,1.79,0,0,0,.85.88c5.56,2.35,11.14,4.66,16.71,7l.64.24c.21-.08.41-.13.6-.21,5.58-2.31,11.16-4.61,16.73-6.95a1.78,1.78,0,0,0,.85-.88q3.52-8.34,7-16.72a1.77,1.77,0,0,0,0-1.22M29.44,31.83a.77.77,0,0,1-.18,0c-2,0-4,0-6,0a.92.92,0,0,1-.43-.09A5,5,0,0,0,20.46,28c.94-2.36,1.92-4.71,2.86-7a6.23,6.23,0,0,0,3.78,0l0,0q1.79,4.32,3.57,8.64a.85.85,0,0,1,.05.34,3.13,3.13,0,0,0-1.3,1.8M9.36,20.55a2.8,2.8,0,0,0,1.94.78,2.86,2.86,0,0,0,.36,0,1.83,1.83,0,0,1,.58.78Q13.61,25,15,27.9a1,1,0,0,1,.06.18,5,5,0,0,0-1.65,1.83,3.62,3.62,0,0,1-1.38-.38C9,28.18,5.89,27,2.79,25.68c-.28-.12-.56-.26-.93-.44.24-.2.38-.33.54-.44,2.11-1.35,4.24-2.69,6.35-4a1.06,1.06,0,0,1,.61-.21m8.49,6.71a4.93,4.93,0,0,0-1.61.27,4,4,0,0,1-.59-1C14.88,24.7,14,23,13.12,21.21a1.53,1.53,0,0,1-.15-.45,2.8,2.8,0,0,0,1.15-2.25h0a3.46,3.46,0,0,1,1-.34c1.28-.28,2.55-.61,3.82-1a1.55,1.55,0,0,1,.38-.06,6.24,6.24,0,0,0,3,3.43,1.09,1.09,0,0,1-.06.22c-.92,2.17-1.85,4.34-2.71,6.55a1.1,1.1,0,0,1-.09.18,4.94,4.94,0,0,0-1.61-.27m14,2.27c-1.27-3-2.5-6-3.73-9a6.26,6.26,0,0,0,2.25-2c1,.57,2.12,1.16,3.2,1.78a4,4,0,0,0,1.57,4.75.26.26,0,0,1,0,.05q-.93,2.17-2,4.3a.6.6,0,0,1-.09.12,3.13,3.13,0,0,0-.61-.06,3.18,3.18,0,0,0-.58.06l0,0M35,30.81a3.14,3.14,0,0,0-.74-.73,1,1,0,0,1,.06-.32c.56-1.31,1.2-2.58,1.78-3.89a1.72,1.72,0,0,1,.15-.26,4,4,0,0,0,1.12.18A4,4,0,0,0,41,23.36c2.36.59,4.72,1.23,7.07,1.86l0,.2-3.53,1.46c-3.12,1.29-6.23,2.6-9.36,3.87a1.26,1.26,0,0,1-.29.07m3.28-13a4,4,0,0,0-.91-.11,4,4,0,0,0-3.2,1.59l-.07,0c-1-.5-2-1-3-1.64a.46.46,0,0,1-.14-.15,6.22,6.22,0,0,0,.18-4.35c3.42-1.46,6.85-2.89,10.52-4.42-1.19,3.2-2.27,6.14-3.39,9.07v0M25.8,1.62s.06-.09.16-.25L41.27,7.69,30.69,12.09a6.23,6.23,0,0,0-4.91-3.23c0-2.42,0-4.83,0-7.25m-1.13-.33V3.45c0,1.72,0,3.44,0,5.16a1,1,0,0,1,0,.26,6.23,6.23,0,0,0-4.86,3.22L9.42,7.81l0-.22,15.28-6.3M9.56,9.09c3.1,1.28,6.18,2.58,9.29,3.84a2.44,2.44,0,0,1,.44.22A6,6,0,0,0,19.07,16a2.67,2.67,0,0,1-.85.29c-1.34.28-2.67.63-4,1a1.33,1.33,0,0,1-.39,0A2.81,2.81,0,0,0,11.3,15.7l-.29,0a.61.61,0,0,1-.2-.25c-.7-2.07-1.34-4.15-2-6.24a2.24,2.24,0,0,1,0-.42c.31.11.55.17.78.27m-2,.47.24,0,1.3,4c.13.42.23.85.39,1.25a2.46,2.46,0,0,1,.26,1.35,2.81,2.81,0,0,0-1.25,2.34,2.78,2.78,0,0,0,.14.83.53.53,0,0,1-.18.31c-2.16,1.41-4.35,2.79-6.72,4L7.54,9.56m.29,32.16L1.58,26.5l.18-.15L8.11,29c1.53.64,3.06,1.29,4.6,1.9a1.44,1.44,0,0,1,.31.16,4.93,4.93,0,0,0,1,4.32.42.42,0,0,1-.08.25c-2,2-4,4-6.13,6.09m16.1,7.14L8.83,42.64l-.18-.32c.61-.52,1.26-1,1.83-1.58,1.39-1.37,2.76-2.76,4.13-4.16a1.1,1.1,0,0,1,.41-.3A4.9,4.9,0,0,0,19,37a.62.62,0,0,1,.36.25c1.57,3.79,3.11,7.59,4.65,11.4,0,0,0,0-.09.18m1.8-1.56c-.13.31-.27.63-.53,1.2l-3.27-7.92c-.48-1.16-.94-2.32-1.43-3.47a.86.86,0,0,1-.08-.65,5,5,0,0,0,2.3-3.32.72.72,0,0,1,.38-.18c2.08,0,4.16,0,6.24,0a3.12,3.12,0,0,0,1.34,2.29,7.4,7.4,0,0,1-.43,1.18c-1.55,3.61-3,7.25-4.53,10.88m.59,1.64c.15-.45.22-.72.32-1l5.06-12.2,0-.07a3.17,3.17,0,0,0,.71.09,3.1,3.1,0,0,0,1.86-.63l.05,0,6.75,6.75c.16.16.31.34.58.64L26.32,48.94m16.27-7.27c-.25-.19-.43-.31-.58-.46l-6.82-6.78a1.37,1.37,0,0,1-.09-.12,3,3,0,0,0,.37-2.46,1.49,1.49,0,0,1,.25-.15l12.1-5c.24-.1.48-.17.73-.26l.19.16L42.59,41.67M48.17,24c-2.16-.58-4.32-1.18-6.49-1.75a1.91,1.91,0,0,1-.34-.12,3.74,3.74,0,0,0-2-3.9.39.39,0,0,1,0-.12c1.06-2.86,2.16-5.71,3.25-8.57a1.83,1.83,0,0,1,.23-.31L49,24.14a7.29,7.29,0,0,1-.78-.11"/></g></g></svg>