<svg xmlns="http://www.w3.org/2000/svg" xmlns:xlink="http://www.w3.org/1999/xlink" width="600" height="300" viewBox="0 0 128 122"><defs><style>.cls-1{fill:none;}.cls-2{clip-path:url(#clip-path);}.cls-3{opacity:0.27;}.cls-4{clip-path:url(#clip-path-2);}.cls-5{fill:#4f4f4f;}</style><clipPath id="clip-path" transform="translate(-140.65 -1923.69)"><rect class="cls-1" x="40.55" width="1280" height="2925.04"/></clipPath><clipPath id="clip-path-2" transform="translate(-140.65 -1923.69)"><polyline class="cls-1" points="0 1706.13 11 2247.93 1350.1 2247.93 1339.1 1706.13"/></clipPath></defs><title>Fornecedores</title><g id="Camada_2" data-name="Camada 2"><g id="Camada_1-2" data-name="Camada 1"><path class="cls-5" d="M256.34,1953.53v.68a22.19,22.19,0,0,1-2.14,3c-2.34,2.34-4.81,4.56-7.18,6.87a1.71,1.71,0,0,0-.44,1.32,10.22,10.22,0,0,1-3.11,10c-.68.64-1.45,1.18-2.46,2,1.19,1,2.07,1.71,2.82,2.49a9.69,9.69,0,0,1,2.44,10.41,9.55,9.55,0,0,1-8.17,6.71,1,1,0,0,0-1,1,9.9,9.9,0,0,1-8.56,8.63c-.7.11-.9.32-1,1a9.88,9.88,0,0,1-8.09,8.46c-1.17.17-1.48.61-1.62,1.65a8.77,8.77,0,0,1-2.35,4.79,10,10,0,0,1-14.45.59c-.9-.83-1.76-1.71-2.77-2.7-.87.94-1.58,1.82-2.41,2.58a10.07,10.07,0,0,1-17-5.87c-.12-.72-.39-.9-1.06-1a9.9,9.9,0,0,1-8.49-8.43,1.12,1.12,0,0,0-1.05-1.15c-4.95-1-7.74-3.81-8.62-8.72a.9.9,0,0,0-.92-.88,10.05,10.05,0,0,1-5.75-17.1c.78-.8,1.68-1.48,2.73-2.39-1.1-1-2-1.68-2.71-2.46a9.84,9.84,0,0,1-2.68-9.34,1.59,1.59,0,0,0-.53-1.68q-3.91-3.67-7.77-7.4c-1.85-1.8-1.85-3.56,0-5.37q13.15-13,26.32-25.93c2.11-2.07,3.67-2,5.8.1,3,3,6,6,9,9a1.75,1.75,0,0,0,1.76.59,22.94,22.94,0,0,1,12.42,1.23,2.72,2.72,0,0,0,2.15,0,23,23,0,0,1,12.41-1.25,1.75,1.75,0,0,0,1.78-.54q4.63-4.72,9.34-9.36c1.76-1.73,3.46-1.77,5.24-.08,2.21,2.1,4.35,4.27,6.53,6.41,5.94,5.83,11.9,11.64,17.8,17.51,1.42,1.41,3.2,2.56,3.75,4.68m-57.21,42.59c3.32.15,5.75,2.15,8,4.53,2.49,2.62,5.09,5.14,7.66,7.68,1.67,1.65,3.75,1.74,5.21.29s1.36-3.55-.29-5.21c-2.57-2.59-5.17-5.17-7.75-7.76a24,24,0,0,1-1.72-1.79,3.28,3.28,0,0,1,1.34-5.14,3.54,3.54,0,0,1,3.89,1.07c2.91,2.95,5.85,5.87,8.79,8.79,1.82,1.82,3.84,2,5.36.41s1.31-3.54-.43-5.27l-8.55-8.55a9,9,0,0,1-.9-1,3.28,3.28,0,0,1,2-5.21,3.45,3.45,0,0,1,3.24,1.18q4.5,4.53,9,9c1.66,1.64,3.76,1.71,5.21.24a3.51,3.51,0,0,0-.27-5.13c-7.87-7.9-15.74-15.8-23.67-23.65a10.15,10.15,0,0,0-14.76.11c-1.68,1.67-3.32,3.4-5.07,5a10,10,0,0,1-16.29-4.64,9.7,9.7,0,0,1,2.58-10.08c2.86-2.89,5.75-5.76,8.63-8.64.28-.28.53-.58.79-.87-.12-.12-.14-.16-.16-.17a3.49,3.49,0,0,0-.44-.09,16,16,0,0,0-13,4.29c-5.07,4.83-10,9.86-14.92,14.81-1.63,1.62-3.27,3.23-4.87,4.88-1.26,1.29-1.6,2.89-.68,4.21a35,35,0,0,0,3,3.35c.76-.84,1.36-1.52,2-2.16a9.77,9.77,0,0,1,10.3-2.86,9.67,9.67,0,0,1,7.14,8.2c.13.75.4,1,1.1,1.1a9.84,9.84,0,0,1,8.48,8.57,1,1,0,0,0,1,1,9.58,9.58,0,0,1,7.65,5.48,34.75,34.75,0,0,1,1.37,4M236.59,1973l2.44-2.56a3.44,3.44,0,0,0,0-5.2c-6.38-6.4-12.72-12.84-19.18-19.16a16.83,16.83,0,0,0-23.55-.25c-3.34,3.15-6.55,6.44-9.78,9.71-1.65,1.66-1.67,3.75-.15,5.2s3.46,1.3,5.12-.32c1.45-1.43,2.86-2.89,4.32-4.31,6.88-6.71,16.74-7,23.75-.42,5.52,5.17,10.76,10.64,16.11,16a9.2,9.2,0,0,1,.89,1.32m-60.28-35.85-5.29-5.3-22.31,22,5.63,5.31,22-22M242.62,1959l5.58-5.27-22.29-21.89-5.28,5.18,22,22m-73.5,14.84a8.76,8.76,0,0,0-2.13,1.23c-3.12,3-6.17,6.08-9.2,9.17a3.47,3.47,0,0,0-.15,5.13c1.46,1.43,3.49,1.33,5.13-.26,1.37-1.34,2.72-2.71,4.08-4.07,1.76-1.76,3.54-3.49,5.26-5.29a3.27,3.27,0,0,0,.63-3.86c-.6-1.32-1.72-1.93-3.61-2m1,26.11a7.47,7.47,0,0,0,2.07-1.13q4.76-4.58,9.35-9.33a3.4,3.4,0,0,0,0-5,3.49,3.49,0,0,0-5,.23c-1.48,1.45-2.93,2.92-4.4,4.39-1.68,1.68-3.38,3.33-5,5a3.25,3.25,0,0,0-.65,3.76c.58,1.32,1.64,2,3.65,2.08m5.58,5.67c.15,1.93.8,3,2.12,3.61a3.31,3.31,0,0,0,3.93-.79q4.7-4.64,9.35-9.35a3.47,3.47,0,0,0,.09-5,3.41,3.41,0,0,0-5,.11c-3.15,3.08-6.27,6.19-9.33,9.36a8.34,8.34,0,0,0-1.2,2.1m22.65-3.17a8.7,8.7,0,0,0-2.33,1.17q-5,4.78-9.75,9.73a3.35,3.35,0,0,0,.11,4.77,3.45,3.45,0,0,0,4.79.07c.53-.48,1-1,1.52-1.51,2.69-2.69,5.39-5.37,8.06-8.07a3.24,3.24,0,0,0,.79-3.82,3.92,3.92,0,0,0-3.19-2.33m9.4,8.06-4.64,5.3c.88.86,1.71,1.74,2.61,2.53a3.45,3.45,0,0,0,4.54-.06,3.34,3.34,0,0,0,.54-4.49c-.93-1.2-2.07-2.24-3-3.28" transform="translate(-140.65 -1923.69)"/></g></g></svg>