<svg xmlns="http://www.w3.org/2000/svg"  width="600" height="300" viewBox="0 0 128 122"><defs><style>.cls-1{fill:#4f4f4f;}.cls-2{fill:none;stroke:#4f4f4f;stroke-miterlimit:10;stroke-width:2px;}</style></defs><title>ganho</title><g id="Camada_2" data-name="Camada 2"><g id="Camada_1-2" data-name="Camada 1"><path class="cls-1" d="M84.79,88.21a4.71,4.71,0,0,1-.43-1.16A1.55,1.55,0,0,1,84.62,86a1.12,1.12,0,0,1,1-.18q4.46,1.8,8.86,3.72a1.11,1.11,0,0,1,.55.86,1.27,1.27,0,0,1-.6.93Q90.09,93.2,85.68,95a1.24,1.24,0,0,1-1.1-.18,1.52,1.52,0,0,1-.21-1.1,5.4,5.4,0,0,1,.45-1.22H4.8c-.88,0-1.24-.38-1.23-1.26,0-2.83,0-5.67,0-8.5q0-35.13,0-70.26V11.24a5.38,5.38,0,0,1-1.24.46,1.57,1.57,0,0,1-1.1-.24,1.12,1.12,0,0,1-.19-1Q2.86,6,4.78,1.58A1.26,1.26,0,0,1,5.73,1a1.12,1.12,0,0,1,.85.58c1.26,2.91,2.49,5.84,3.67,8.78A1.33,1.33,0,0,1,10,11.52c-.2.21-.73.16-1.1.12a4.87,4.87,0,0,1-1-.37v77Z"/><path class="cls-2" d="M84.79,88.21a4.71,4.71,0,0,1-.43-1.16A1.55,1.55,0,0,1,84.62,86a1.12,1.12,0,0,1,1-.18q4.46,1.8,8.86,3.72a1.11,1.11,0,0,1,.55.86,1.27,1.27,0,0,1-.6.93Q90.09,93.2,85.68,95a1.24,1.24,0,0,1-1.1-.18,1.52,1.52,0,0,1-.21-1.1,5.4,5.4,0,0,1,.45-1.22H4.8c-.88,0-1.24-.38-1.23-1.26,0-2.83,0-5.67,0-8.5q0-35.13,0-70.26V11.24a5.38,5.38,0,0,1-1.24.46,1.57,1.57,0,0,1-1.1-.24,1.12,1.12,0,0,1-.19-1Q2.86,6,4.78,1.58A1.26,1.26,0,0,1,5.73,1a1.12,1.12,0,0,1,.85.58c1.26,2.91,2.49,5.84,3.67,8.78A1.33,1.33,0,0,1,10,11.52c-.2.21-.73.16-1.1.12a4.87,4.87,0,0,1-1-.37v77Z"/><path class="cls-1" d="M73.55,48.83c0,3.75,0,7.49,0,11.24a1.59,1.59,0,0,0,.87,1.57,12,12,0,0,1,5.5,12.51,12.25,12.25,0,0,1-9.46,9.57A12.11,12.11,0,0,1,57,76.87a12,12,0,0,1,3.49-14.44,2.15,2.15,0,0,0,.94-1.95c0-7.65,0-15.3,0-22.95,0-1.37.46-1.91,1.84-1.93,2.8,0,5.6,0,8.4,0,1.39,0,1.84.53,1.85,1.9q0,5.67,0,11.33m-6.35,29c0,.2,0,.42,0,.64,0,.57.17,1,.81,1s.83-.5.76-1.05.2-.74.67-.93a3.13,3.13,0,0,0,2.1-3,3,3,0,0,0-1.89-2.91,11.73,11.73,0,0,0-1.41-.52,7.7,7.7,0,0,1-1.15-.42,1.47,1.47,0,0,1-.89-1.61,1.6,1.6,0,0,1,1.48-1.37,2.4,2.4,0,0,1,2.64,1.2,1.27,1.27,0,0,0,1.13.43.69.69,0,0,0,.21-1.17,10.67,10.67,0,0,0-2.19-1.81c-.46-.27-.76-.42-.71-1s-.19-1-.83-1-.78.46-.74,1a.81.81,0,0,1-.6,1,3.18,3.18,0,0,0-.09,6c.66.29,1.37.43,2,.69a1.62,1.62,0,0,1,1.21,1.79A1.78,1.78,0,0,1,68,76.18a2.36,2.36,0,0,1-2.34-1.26c-.15-.28-.69-.34-1-.5-.11.41-.44.95-.29,1.2a6.05,6.05,0,0,0,1.46,1.54,6.21,6.21,0,0,0,1.39.63"/><path class="cls-1" d="M50.41,66.36q0,7,0,14c0,1.89-.73,2.62-2.63,2.62h-9c-1.79,0-2.53-.74-2.53-2.52q0-14.16,0-28.33c0-1.69.71-2.4,2.42-2.4H48c1.73,0,2.44.72,2.44,2.49q0,7.08,0,14.16"/><path class="cls-1" d="M66.3,15.63c-1.19-.88-2.35-1.73-3.5-2.59-1-.75-.93-1.44.2-1.92C67,9.39,71,7.66,75,6a1.81,1.81,0,0,1,1.46,0c.28.19.35.89.3,1.34-.45,4.13-1,8.25-1.44,12.37,0,.22,0,.44-.09.65-.22,1.07-.89,1.35-1.77.72-1.05-.75-2.07-1.53-3.11-2.3l-.6-.42c-.63.61-1.25,1.19-1.84,1.79a109.2,109.2,0,0,1-34,23,104.11,104.11,0,0,1-17.07,5.94c-1.11.28-1.5.06-1.78-1-.11-.43-.21-.86-.31-1.29-.29-1.24-.1-1.58,1.12-1.89a105.27,105.27,0,0,0,20.89-7.78,101.34,101.34,0,0,0,28.9-20.75l.63-.69"/><path class="cls-2" d="M66.3,15.63c-1.19-.88-2.35-1.73-3.5-2.59-1-.75-.93-1.44.2-1.92C67,9.39,71,7.66,75,6a1.81,1.81,0,0,1,1.46,0c.28.19.35.89.3,1.34-.45,4.13-1,8.25-1.44,12.37,0,.22,0,.44-.09.65-.22,1.07-.89,1.35-1.77.72-1.05-.75-2.07-1.53-3.11-2.3l-.6-.42c-.63.61-1.25,1.19-1.84,1.79a109.2,109.2,0,0,1-34,23,104.11,104.11,0,0,1-17.07,5.94c-1.11.28-1.5.06-1.78-1-.11-.43-.21-.86-.31-1.29-.29-1.24-.1-1.58,1.12-1.89a105.27,105.27,0,0,0,20.89-7.78,101.34,101.34,0,0,0,28.9-20.75Z"/><path class="cls-1" d="M15.14,73.86c0-2.23,0-4.47,0-6.7,0-1.58.73-2.33,2.3-2.33q4.81,0,9.63,0A2,2,0,0,1,29.25,67q0,6.89,0,13.78A2,2,0,0,1,27,82.95q-4.81,0-9.63,0a2.05,2.05,0,0,1-2.27-2.29c0-2.27,0-4.53,0-6.8"/></g></g></svg>