<svg xmlns="http://www.w3.org/2000/svg" width="150" height="50" viewBox="0 0 260.66 86.23"><defs><style>.cls-1{fill:#88e692;}.cls-2,.cls-3{fill:#4f4f4f;}.cls-3{font-size:18.53px;font-family:SourceSansPro-Black, Source Sans Pro;}.cls-4{letter-spacing:-0.02em;}.cls-5{letter-spacing:-0.03em;}</style></defs><title>Logo</title><g id="Camada_2" data-name="Camada 2"><g id="Camada_1-2" data-name="Camada 1"><path class="cls-1" d="M85.77,42Q80,27.82,74,13.74A3.68,3.68,0,0,0,72.23,12Q58.16,6,44,.18a3,3,0,0,0-2.08,0Q27.73,6,13.58,12A3.27,3.27,0,0,0,12,13.61Q6,27.76.19,42A3,3,0,0,0,.18,44Q6,58.26,11.92,72.42a3.05,3.05,0,0,0,1.45,1.51c9.48,4,19,7.94,28.49,11.89.36.15.74.28,1.1.42.37-.13.7-.23,1-.36C53.48,81.94,63,78,72.48,74a3,3,0,0,0,1.46-1.5q6-14.22,11.85-28.5a3,3,0,0,0,0-2.08M50.19,54.26a1.38,1.38,0,0,1-.31.07c-3.43,0-6.86,0-10.28,0a1.56,1.56,0,0,1-.74-.15,8.44,8.44,0,0,0-4-6.46c1.6-4,3.27-8,4.88-11.94a10.62,10.62,0,0,0,6.44,0l0,.08q3.05,7.36,6.08,14.72a1.49,1.49,0,0,1,.09.58,5.32,5.32,0,0,0-2.22,3.07M16,35a4.77,4.77,0,0,0,3.3,1.33,4.66,4.66,0,0,0,.62-.06,3.12,3.12,0,0,1,1,1.33q2.33,5,4.79,9.94a1.82,1.82,0,0,1,.11.32A8.5,8.5,0,0,0,22.95,51a6.16,6.16,0,0,1-2.35-.65C15.37,48,10,45.94,4.76,43.76c-.48-.2-1-.45-1.58-.75.41-.33.65-.57.93-.74,3.6-2.3,7.22-4.58,10.82-6.9A1.79,1.79,0,0,1,16,35M30.43,46.46a8.43,8.43,0,0,0-2.74.46,6.67,6.67,0,0,1-1-1.76c-1.31-3.06-2.84-6-4.32-9a2.53,2.53,0,0,1-.25-.76,4.78,4.78,0,0,0,2-3.84h0A5.92,5.92,0,0,1,25.84,31c2.18-.48,4.35-1,6.51-1.63a2.61,2.61,0,0,1,.64-.1,10.64,10.64,0,0,0,5.08,5.85,1.77,1.77,0,0,1-.11.38c-1.57,3.7-3.16,7.41-4.62,11.16a1.89,1.89,0,0,1-.16.31,8.43,8.43,0,0,0-2.75-.47m23.83,3.88C52.1,45.25,50,40.13,47.91,35.08a10.66,10.66,0,0,0,3.83-3.4c1.77,1,3.62,2,5.46,3a6.78,6.78,0,0,0,2.68,8.09.6.6,0,0,1,0,.09q-1.59,3.7-3.35,7.32a1,1,0,0,1-.15.21,5.08,5.08,0,0,0-2,0,.77.77,0,0,1-.07-.08m5.35,2.17a5.36,5.36,0,0,0-1.26-1.24,1.67,1.67,0,0,1,.11-.55c1-2.23,2.05-4.41,3-6.63a3,3,0,0,1,.25-.45A6.75,6.75,0,0,0,70,39.81c4,1,8,2.1,12.05,3.17l.05.33-6,2.49c-5.31,2.21-10.62,4.43-16,6.59a2.09,2.09,0,0,1-.5.11m5.6-22.16a6.75,6.75,0,0,0-7,2.53l-.11,0C56.36,32,54.65,31.07,53,30.06a.8.8,0,0,1-.24-.25,10.61,10.61,0,0,0,.31-7.42C58.9,19.9,64.75,17.46,71,14.85c-2,5.45-3.87,10.47-5.79,15.47l0,0M44,2.76c0-.08.1-.16.27-.42L70.35,13.1l-18,7.51a10.62,10.62,0,0,0-8.36-5.5c0-4.12,0-8.24,0-12.36M42,2.19V5.88c0,2.94,0,5.87,0,8.8a1.69,1.69,0,0,1-.08.44,10.62,10.62,0,0,0-8.28,5.5L16,13.31l0-.37L42,2.19M16.29,15.5c5.28,2.19,10.54,4.4,15.83,6.55a4,4,0,0,1,.75.38,10.25,10.25,0,0,0-.38,4.84,4.53,4.53,0,0,1-1.45.49c-2.28.47-4.54,1.07-6.8,1.67a2.36,2.36,0,0,1-.66.08,4.79,4.79,0,0,0-4.33-2.76,4.67,4.67,0,0,0-.49.05,1,1,0,0,1-.34-.42C17.23,22.86,16.14,19.3,15,15.75A3.92,3.92,0,0,1,15,15c.53.18.94.3,1.33.46m-3.45.79.41,0,2.22,6.88c.23.71.39,1.44.67,2.13a4.21,4.21,0,0,1,.45,2.3A4.69,4.69,0,0,0,14.7,33a.91.91,0,0,1-.3.53C10.72,35.91,7,38.26,3,40.4l9.89-24.11m.5,54.82L2.69,45.17,3,44.92l10.84,4.52c2.61,1.09,5.21,2.2,7.84,3.24a2.62,2.62,0,0,1,.53.28,8.39,8.39,0,0,0,1.72,7.36.71.71,0,0,1-.13.42C20.41,64.16,17,67.53,13.35,71.11M40.79,83.29,15.05,72.68l-.31-.54c1-.89,2.15-1.73,3.13-2.69,2.38-2.33,4.7-4.71,7-7.08a1.86,1.86,0,0,1,.7-.51,8.36,8.36,0,0,0,6.8,1.27,1,1,0,0,1,.61.43C35.69,70,38.31,76.5,40.94,83c0,0,0,.08-.15.3m3.06-2.66c-.22.54-.47,1.07-.89,2l-5.58-13.5c-.81-2-1.6-4-2.45-5.91a1.46,1.46,0,0,1-.13-1.11,8.45,8.45,0,0,0,3.93-5.66,1.24,1.24,0,0,1,.65-.3c3.55-.07,7.09-.06,10.64,0a5.31,5.31,0,0,0,2.28,3.9,12.74,12.74,0,0,1-.74,2c-2.64,6.15-5.16,12.36-7.72,18.55m1,2.79c.25-.77.37-1.23.55-1.66Q49.71,71.36,54,61s.05-.08.07-.12a5.17,5.17,0,0,0,4.38-.92l.09.07,11.5,11.5c.28.28.53.58,1,1.1L44.86,83.42M72.59,71c-.42-.33-.73-.54-1-.79Q65.78,64.46,60,58.68c-.06-.06-.1-.13-.15-.2a5.09,5.09,0,0,0,.63-4.19,2.51,2.51,0,0,1,.43-.25l20.63-8.55c.4-.17.83-.3,1.24-.45l.33.27L72.59,71M82.11,41c-3.69-1-7.37-2-11.06-3a3.21,3.21,0,0,1-.57-.2,6.74,6.74,0,0,0,.07-.73,6.87,6.87,0,0,0-3.42-5.93.67.67,0,0,1,0-.21c1.8-4.88,3.68-9.74,5.54-14.6a3.27,3.27,0,0,1,.4-.53L83.44,41.15A12.88,12.88,0,0,1,82.11,41"/><path class="cls-2" d="M133.38,46.52a14.59,14.59,0,0,1-14.74-14.34c0-7.9,6.8-14.44,14.94-14.34s14.88,6.54,14.8,14.47-6.71,14.26-15,14.22m.11-23.12a8.82,8.82,0,0,0,0,17.64,9,9,0,0,0,8.83-8.83,8.91,8.91,0,0,0-8.81-8.81"/><path class="cls-2" d="M230.81,21.81l-3,4.12a62.41,62.41,0,0,0-7.32-2.3,9.13,9.13,0,0,0-4.21.69A2.13,2.13,0,0,0,215.17,26a2.12,2.12,0,0,0,1,1.68c1.71.65,3.51,1.05,5.28,1.53s3.89.87,5.73,1.57A7,7,0,0,1,232,37.35c.16,3.54-1.14,6.23-4.38,7.87-5.34,2.71-14.63,1.24-19.06-3.11l2.95-4.21c2.28.95,4.42,1.93,6.63,2.73a7.6,7.6,0,0,0,6-.23c1-.44,1.79-1,1.78-2.25a2.32,2.32,0,0,0-1.9-2.29c-1.91-.53-3.86-.93-5.79-1.37-2.37-.54-4.72-1.09-6.68-2.69a7.42,7.42,0,0,1,.92-12c5.34-3.12,13.58-2.25,18.36,2"/><path class="cls-2" d="M153.28,18.44h5.88V29.69c.55-.51.86-.77,1.14-1.06,2.92-3.12,5.81-6.28,8.78-9.36a3.23,3.23,0,0,1,2-.85c2-.11,3.95,0,6.34,0L166,30.1l11.85,16c-2.62,0-4.88,0-7.13,0-.35,0-.75-.56-1-.93-2.6-3.51-5.18-7-7.83-10.63-1.62,1.33-3,2.55-2.73,4.93a64.49,64.49,0,0,1,0,6.61h-5.92Z"/><path class="cls-2" d="M180.3,18.47h5.87c0,.57.07,1.09.07,1.6,0,5,0,9.91,0,14.87,0,5.95,5.89,7.34,9.44,5.54a5.1,5.1,0,0,0,3-4.64c.08-5.15.06-10.3.1-15.45,0-.62.06-1.23.1-1.92h5.91c0,.5.08,1,.08,1.43,0,4.86,0,9.72,0,14.58,0,7.4-4.6,11.91-12,12-4.56.05-8.41-1.3-11-5.27a12,12,0,0,1-1.69-6.69c0-5,0-9.91,0-14.87a9.81,9.81,0,0,1,.15-1.18"/><path class="cls-2" d="M248.83,40H235.45c0-2.47-.54-4.73,1.59-6.89,4.15-4.22,8-8.77,11.85-13.26a3.59,3.59,0,0,1,3.47-1.55,19.18,19.18,0,0,0,2.5,0V34.7h3.33V40h-3.29v6h-6.06Zm-.05-11.62-5.29,6.19h5.29Z"/><path class="cls-2" d="M94.95,18.44h20.76v5.21H101.08v5.83c.49,0,1,.09,1.51.09,3.4,0,6.81,0,10.21,0,1,0,1.32.35,1.33,1.35.05,4,.08,4-3.92,4l-8.75,0a2.32,2.32,0,0,0-.5.2v4.36c0,1.8,0,3.6,0,5.39,0,.84-.22,1.26-1.15,1.23-1.59,0-3.19,0-4.88,0Z"/><text class="cls-3" transform="translate(92.67 71.87) scale(1.04 1)">Ad<tspan class="cls-4" x="21.56" y="0">v</tspan><tspan x="31.29" y="0">an</tspan><tspan class="cls-5" x="52" y="0">c</tspan><tspan x="60.19" y="0">ed Analytics</tspan></text></g></g></svg>