<svg xmlns="http://www.w3.org/2000/svg" width="600" height="300" viewBox="0 0 128 122"><defs><style>.cls-1{fill:#4f4f4f;}.cls-2{fill:none;stroke:#4f4f4f;stroke-miterlimit:10;stroke-width:2px;}</style></defs><title>pricing</title><g id="Camada_2" data-name="Camada 2"><g id="Camada_1-2" data-name="Camada 1"><path class="cls-1" d="M64.21,10.14c-2,0-3.91,0-5.8,0a2.44,2.44,0,0,1-1-.47,34.79,34.79,0,0,0-52,22.52c-4.29,19.44,9.1,38.92,28.8,41.72,12.68,1.8,23.31-2.21,31.88-11.73a2.17,2.17,0,0,1,1.33-.63c1.18-.09,2.36,0,3.79,0L69.61,64,80,74.37l1-1a5.31,5.31,0,0,1,8,0c3.1,3.06,6.16,6.16,9.24,9.23l10.94,10.95a5.47,5.47,0,0,1,.08,8.22q-3.86,3.92-7.77,7.79a5.29,5.29,0,0,1-7.6-.3c-3.07-3-6.11-6.1-9.16-9.16l-11-11c-2.83-2.82-2.84-5.74,0-8.59.26-.26.51-.54.71-.76L64,69.39c-10.62,8.13-22.57,10.79-35.65,6.95a36.92,36.92,0,0,1-21.8-17A38.52,38.52,0,0,1,16.75,8.4C32.79-3.22,52.91,0,64.21,10.14m43.36,88a7.52,7.52,0,0,0-.9-1.52Q96.46,86.36,86.2,76.13a1.74,1.74,0,0,0-2.8,0q-3.75,3.7-7.45,7.45a1.72,1.72,0,0,0,0,2.79c.9.93,1.84,1.83,2.77,2.74q8.82,8.67,17.65,17.34c1.29,1.26,2,1.25,3.3,0,2.32-2.32,4.65-4.63,7-7a10.47,10.47,0,0,0,.95-1.33"/><path class="cls-2" d="M64.21,10.14c-2,0-3.91,0-5.8,0a2.44,2.44,0,0,1-1-.47,34.79,34.79,0,0,0-52,22.52c-4.29,19.44,9.1,38.92,28.8,41.72,12.68,1.8,23.31-2.21,31.88-11.73a2.17,2.17,0,0,1,1.33-.63c1.18-.09,2.36,0,3.79,0L69.61,64,80,74.37l1-1a5.31,5.31,0,0,1,8,0c3.1,3.06,6.16,6.16,9.24,9.23l10.94,10.95a5.47,5.47,0,0,1,.08,8.22q-3.86,3.92-7.77,7.79a5.29,5.29,0,0,1-7.6-.3c-3.07-3-6.11-6.1-9.16-9.16l-11-11c-2.83-2.82-2.84-5.74,0-8.59.26-.26.51-.54.71-.76L64,69.39c-10.62,8.13-22.57,10.79-35.65,6.95a36.92,36.92,0,0,1-21.8-17A38.52,38.52,0,0,1,16.75,8.4C32.79-3.22,52.91,0,64.21,10.14Zm43.36,88a7.52,7.52,0,0,0-.9-1.52Q96.46,86.36,86.2,76.13a1.74,1.74,0,0,0-2.8,0q-3.75,3.7-7.45,7.45a1.72,1.72,0,0,0,0,2.79c.9.93,1.84,1.83,2.77,2.74q8.82,8.67,17.65,17.34c1.29,1.26,2,1.25,3.3,0,2.32-2.32,4.65-4.63,7-7A10.47,10.47,0,0,0,107.57,98.15Z"/><path class="cls-1" d="M83.88,14h21.31A5.75,5.75,0,0,1,111,19.9q0,16,0,32.09A5.8,5.8,0,0,1,105,58H62.71a6.68,6.68,0,0,1-4.77-1.88c-4.61-4.35-9.25-8.67-13.87-13a9.84,9.84,0,0,1-.11-14C48.8,24.56,53.7,20,58.58,15.44A5.66,5.66,0,0,1,62.68,14q10.6,0,21.2,0M84,17.69c-7,0-14,0-21,0a3.36,3.36,0,0,0-2.54,1C55.94,23,51.35,27.25,46.78,31.53c-3,2.79-3,6.25,0,9.08q6.81,6.47,13.73,12.83a3.62,3.62,0,0,0,2.23.89c14.17.05,28.34,0,42.51,0,1.69,0,2.16-.49,2.16-2.21q0-16.1,0-32.2c0-1.86-.41-2.27-2.3-2.27H84"/><path class="cls-2" d="M83.88,14h21.31A5.75,5.75,0,0,1,111,19.9q0,16,0,32.09A5.8,5.8,0,0,1,105,58H62.71a6.68,6.68,0,0,1-4.77-1.88c-4.61-4.35-9.25-8.67-13.87-13a9.84,9.84,0,0,1-.11-14C48.8,24.56,53.7,20,58.58,15.44A5.66,5.66,0,0,1,62.68,14Q73.28,14,83.88,14ZM84,17.69c-7,0-14,0-21,0a3.36,3.36,0,0,0-2.54,1C55.94,23,51.35,27.25,46.78,31.53c-3,2.79-3,6.25,0,9.08q6.81,6.47,13.73,12.83a3.62,3.62,0,0,0,2.23.89c14.17.05,28.34,0,42.51,0,1.69,0,2.16-.49,2.16-2.21q0-16.1,0-32.2c0-1.86-.41-2.27-2.3-2.27Z"/><path class="cls-1" d="M10.37,37C11,23.34,22.07,11,35.54,8.76c1.16-.19,2.34-.35,3.52-.43a1.92,1.92,0,0,1,2.28,1.72c0,1-.79,1.82-2.1,1.95A28.13,28.13,0,0,0,14.41,33.54a14.77,14.77,0,0,0-.52,3.61c0,1.48-.83,2.44-2,2.34s-1.59-.86-1.51-2.49"/><path class="cls-2" d="M10.37,37C11,23.34,22.07,11,35.54,8.76c1.16-.19,2.34-.35,3.52-.43a1.92,1.92,0,0,1,2.28,1.72c0,1-.79,1.82-2.1,1.95A28.13,28.13,0,0,0,14.41,33.54a14.77,14.77,0,0,0-.52,3.61c0,1.48-.83,2.44-2,2.34S10.29,38.64,10.37,37Z"/><path class="cls-1" d="M85.36,48.73c0,.34,0,.6,0,.86s0,.52,0,.85H81.71v-1.7a7.64,7.64,0,0,1-6.05-3.26,6.75,6.75,0,0,1-1.28-4.1h3.56A3.87,3.87,0,0,0,81.61,45V37.73a7.61,7.61,0,0,1-5.82-3.06,7.24,7.24,0,0,1-1.42-4.84c.22-3.7,3-6.39,7.28-6.89l.08-1.71h3.6c0,.56,0,1.09.07,1.7a7.64,7.64,0,0,1,5.92,3.16,6.81,6.81,0,0,1,1.35,4.2H89.11a3.89,3.89,0,0,0-3.66-3.63v7.29a7.62,7.62,0,0,1,5.87,3.15,7.24,7.24,0,0,1,1.36,4.86c-.26,3.65-3.11,6.33-7.32,6.78m-3.72-22A3.68,3.68,0,0,0,78,30.4a3.64,3.64,0,0,0,3.63,3.53Zm3.79,11v7.21a3.61,3.61,0,0,0,0-7.21"/><path class="cls-2" d="M85.36,48.73c0,.34,0,.6,0,.86s0,.52,0,.85H81.71v-1.7a7.64,7.64,0,0,1-6.05-3.26,6.75,6.75,0,0,1-1.28-4.1h3.56A3.87,3.87,0,0,0,81.61,45V37.73a7.61,7.61,0,0,1-5.82-3.06,7.24,7.24,0,0,1-1.42-4.84c.22-3.7,3-6.39,7.28-6.89l.08-1.71h3.6c0,.56,0,1.09.07,1.7a7.64,7.64,0,0,1,5.92,3.16,6.81,6.81,0,0,1,1.35,4.2H89.11a3.89,3.89,0,0,0-3.66-3.63v7.29a7.62,7.62,0,0,1,5.87,3.15,7.24,7.24,0,0,1,1.36,4.86C92.41,45.6,89.57,48.28,85.36,48.73Zm-3.72-22A3.68,3.68,0,0,0,78,30.4a3.64,3.64,0,0,0,3.63,3.53Zm3.79,11v7.21a3.61,3.61,0,0,0,0-7.21Z"/><path class="cls-1" d="M52.34,35.81a1.83,1.83,0,0,1-3.66.1,1.83,1.83,0,1,1,3.66-.1"/><path class="cls-2" d="M52.34,35.81a1.83,1.83,0,0,1-3.66.1,1.83,1.83,0,1,1,3.66-.1Z"/></g></g></svg>