<?xml version="1.0" encoding="UTF-8"?>
<!DOCTYPE svg PUBLIC "-//W3C//DTD SVG 1.1//EN" "http://www.w3.org/Graphics/SVG/1.1/DTD/svg11.dtd">
<!-- Creator: CorelDRAW 2019 (64 Bit) -->
<svg xmlns="http://www.w3.org/2000/svg" xml:space="preserve" width="6.4125cm" height="6cm" version="1.1" style="shape-rendering:geometricPrecision; text-rendering:geometricPrecision; image-rendering:optimizeQuality; fill-rule:evenodd; clip-rule:evenodd"
viewBox="0 0 5020.5 4682.4"
 xmlns:xlink="http://www.w3.org/1999/xlink">
 <defs>
  <style type="text/css">
   <![CDATA[
    .fil0 {fill:#4F4F4F;fill-rule:nonzero}
   ]]>
  </style>
 </defs>
 <g id="Camada_x0020_1">
  <metadata id="CorelCorpID_0Corel-Layer"/>
  <path class="fil0" d="M2637.4 1c41.9,8.5 84.1,12.7 126.8,12.1 35,8.6 70.5,13 106.4,14.4 3.7,4.3 8.4,5.3 13.7,3.8 2.2,0.1 4.4,0.3 6.6,0.4 42.4,8.5 84.7,17 127.1,25.5 42,11.5 83.4,25.7 126.8,32.2 84.5,29.8 168.9,59.5 253.4,89.3 41.1,21.7 83.5,40.5 126.8,57.3l-0.2 -0.2c4.4,2.1 8.7,4.3 13.1,6.4l-0.2 -0.2c36.7,23.1 75,43.3 114.2,61.7 86.3,52.7 171.2,107.8 253.8,166.2 10.8,10.6 21.6,21.1 36.1,26.8 27.5,28.3 58.1,52.7 90.5,75.2 15.6,20.6 36.7,35.1 56.7,50.8 22,24.5 44.5,48.6 70.4,69.1 16.8,21.2 35.8,40.2 56.4,57.7 19.2,29.4 43.6,54.2 69.2,77.9 10.3,18.4 22.9,35 39.1,48.7 25.3,37.5 51.2,74.6 81.9,107.9 2,7.8 5.4,14.8 12.7,19 51.1,84.4 102,168.9 153,253.2l57.4 120.5c1.7,2.5 3.4,4.9 5.1,7.3l-0.4 0.1c3.7,11.9 5.5,25 12,35.3 5.2,8.3 0.2,28.5 21,22.7 86.7,-32.1 167.6,-77.4 253.2,-111.8 57.5,-7.7 77.6,4.3 100.8,60 -2,39.9 -4.1,79.7 -6.2,119.6 -7.7,41.9 -12.8,84.1 -11.8,126.9 -10,22.3 -5.2,46.1 -6.8,69.3 -8.3,11.9 -5.3,25.2 -4.8,38.1l-0.6 19.3c-8.8,41.8 -11.9,84.3 -12.3,127 -8,32.8 -8,66.3 -8.4,99.7 -6,5.9 -5.4,13 -3.7,20.2 -0.1,2.2 -0.1,4.4 -0.1,6.6 -7.6,42 -10.2,84.5 -12.1,127.1 -5.6,37.4 -10.2,74.9 -9.2,112.8 -8.6,30.4 -7.3,63.3 -24.1,91.6 -30.2,28.8 -64.1,32.4 -101,14.6 -8.3,-4.1 -15.3,-11.3 -25.5,-11l-0.1 0.8c-2.3,-2.2 -4.5,-4.3 -6.9,-6.5l0.3 0.3c-2.2,-1.9 -4.5,-3.8 -6.7,-5.7 -77.2,-61.6 -158.6,-117.4 -240.8,-171.9 -11.2,-10.4 -22.2,-20.9 -37.1,-26 -27.5,-24.3 -56.9,-46.1 -89.3,-63.5 -82.3,-63.6 -167.6,-123.1 -254,-181 -1.9,-0.7 -3.8,-1.4 -5.7,-2.2l-7.2 -6 -0.2 -0.1c-7.3,-12.2 -20.4,-17.6 -31.4,-25.1 -29,-19.6 -55.6,-41.1 -65.3,-77 -2.8,-46.2 25,-71 62.2,-89.4 15.9,-7.9 34.2,-11.1 47.3,-24.3 28.5,-10.3 57.7,-19.3 82.3,-38l0.1 -0.1c5.2,-0 9.9,-1.3 12.9,-6.2 11.6,-1.7 22.8,-4.8 31.4,-13.5 12.6,-5 25.2,-10.1 37.9,-15 12.3,-4.8 15.3,-13.1 9.9,-25.1 -29.9,-66 -56.2,-133.9 -96.4,-194.8 -17.5,-44.2 -44.5,-83.2 -70.1,-122.7 -60.6,-93.5 -125.5,-183.7 -204.4,-263 -16.8,-21.6 -35.4,-41.5 -56.9,-58.6 -12.8,-16.5 -26.6,-31.8 -44.6,-42.8 -2.1,-2.1 -4.3,-4.2 -6.5,-6.3l0.1 0c-2.1,-2.1 -4.3,-4.2 -6.4,-6.4l0.1 0c-2.1,-2 -4.3,-4.2 -6.4,-6.2l-0.1 -0.1c-17.3,-23.1 -40.1,-40 -63.6,-56.1l-0.8 -0.6c-2.1,-5 -6.3,-6.9 -11.4,-7.3l0.5 0.5c-2.3,-2.2 -4.6,-4.5 -6.9,-6.8l0.5 0.5c-2.3,-2.1 -4.6,-4.2 -6.9,-6.3 -68.3,-63.3 -144.6,-115.4 -226.4,-159.8l-0.7 0.4c-2.3,-2.1 -4.6,-4.3 -6.9,-6.4 -6.7,-6.6 -14.5,-11.3 -24,-12.8 -29.1,-24.1 -63.1,-39.3 -97.3,-54.4 -40.3,-23.6 -82.3,-43.4 -126.6,-58.2 -6.6,-4.8 -13.5,-9 -22.2,-7.1 -3.2,-1.9 -6.3,-3.9 -9.6,-5.9l-0.1 -0c-24.3,-14.8 -50.8,-24.1 -78.2,-31.2 -48.5,-19.9 -97.6,-37.3 -149.6,-45.5l0 0c-7.1,-7.8 -16.7,-6.5 -25.8,-6.9 -1,-1.1 -2.2,-1.2 -3.5,-0.4 -2.9,-1.3 -5.9,-2.6 -8.9,-3.9 -4,-0.5 -8,-1.1 -12,-1.7 -3.4,-4.4 -8,-5.6 -13.3,-4.5 -5.6,-0.9 -11.3,-1.8 -16.9,-2.8 -7.8,-3 -15.3,-7.2 -23.4,-8.9 -120.9,-25 -243.1,-39.9 -366.4,-44.3 -107.6,-3.9 -214.9,3.5 -321.4,18.7 -75.9,10.8 -152,21.6 -225,47.1 -3.7,0.8 -7.3,1.6 -11,2.3 -12.8,-0.9 -24.4,1.9 -34.2,10.6 -3.4,0.6 -6.8,1.2 -10.1,1.9 -5.5,-0.9 -10.4,0.4 -14,5 -3.8,0.7 -7.7,1.3 -11.6,1.9 -6.9,-1 -13.2,-0.3 -17.6,5.9l-1 0.3c-5.4,-1 -10,0.1 -13.2,4.8l-0.1 -0.1c-97.8,26.8 -190.9,64.8 -279.5,114.1 -2,0.1 -3.9,0.7 -5.6,1.9 -2.3,1.5 -4.5,3.1 -6.8,4.6l0.3 -0.3c-5.4,0.1 -10.1,1.7 -13.2,6.5 -2.1,0 -3.9,0.6 -5.6,1.9 -8.5,0.1 -14.5,4.4 -19.2,11.2 -64.8,32.1 -127.5,67.7 -184.5,112.7 -26.7,12.8 -50.8,29.2 -70.8,51.3 -22.1,10.1 -39.8,25.9 -56.1,43.4 -35.7,23.6 -68.3,50.7 -96.1,83.4 -13,5.4 -22.3,14.8 -29.6,26.7 -34.4,31.1 -70,61.3 -96.1,100.4l0.4 0c-2.4,2.1 -4.9,4.3 -7.4,6.4 -10.1,8.5 -20.5,16.8 -25.1,30.1 -29.9,26.2 -53.9,57.4 -74.9,91 -19.7,21.2 -37.2,44.1 -50.7,69.8 -16,16.9 -30.7,34.6 -38.1,57.1 -29.8,39.6 -55.1,81.8 -75.4,127 -1.2,1.2 -1.5,2.6 -0.8,4.2l-5.5 8.1c-1.3,1.2 -1.6,2.5 -0.9,4.1l-6.2 8.8 0.1 -0.2c-21.1,31.5 -37.7,65.2 -48.9,101.5 -18.5,34.4 -44.9,61.4 -77.9,82.1 -14.9,5 -29.8,9.8 -44.6,14.6 -5.3,-1.2 -10,-0.1 -13.7,4 -16,0 -32.1,-0.1 -48.1,-0.1 -3.7,-4.3 -8.3,-5.2 -13.6,-3.9 -2.3,-0.1 -4.6,-0.3 -6.9,-0.5 -2.5,-1.9 -4.7,-4.7 -7.6,-5.5 -94.7,-28.7 -149.8,-133.5 -105.6,-237.9 15.2,-35.9 32.3,-70.9 48.6,-106.3 47.9,-86.1 99.3,-170 151.9,-253.3 1.6,-1.3 2.3,-2.9 1.8,-5 2.1,-2.6 4.1,-5.2 6.1,-7.8 14.8,-11.6 23.4,-27.7 31.8,-43.8 21.5,-20.8 38.1,-45.5 54.5,-70.1 134.8,-165.1 288.5,-310.2 459.2,-437.5 34.4,-22.3 70.1,-42.8 101.1,-70 2.2,-1.6 4.4,-3.3 6.6,-4.8l13 -7.6 -0.2 0.2c40.1,-23.3 80.3,-46.6 120.4,-69.9 2.4,-2 4.7,-3.9 7.1,-5.9l0.1 0.4c28.3,-7 51.3,-24.2 75.8,-38.7 18.2,-5.6 35.3,-13.5 50.7,-24.8 35,-11.9 69.1,-25.9 100.9,-44.9 5.5,-0.3 10.6,-1.6 13.9,-6.6l2.9 0.2 2.6 -1.3c90.4,-29.9 181,-59.8 271.4,-89.8 38.9,-7.1 77.6,-15.5 115.2,-28 42.1,-7.4 84.3,-14.8 126.5,-22.2l139.4 -17.8c122.6,-10.9 245.4,-6.6 368.1,-6.4z"/>
  <path class="fil0" d="M3017.9 4624.9c-33.9,6.8 -67.8,13.6 -101.8,20.4 -111.3,17.3 -223.1,30.9 -335.7,37.1 -25.4,-2.6 -50.9,-2.6 -76.4,-0.1 -29.5,-0.2 -59,-0.2 -88.5,-0.4 -95.5,-4.9 -190.5,-16.1 -285.6,-26.3 -39,-10.4 -78.8,-16.4 -118.8,-21.5 -44.1,-12.3 -88.2,-25 -133.8,-31.1l-0.2 0.3c-2.4,-1.5 -4.7,-3 -7,-4.4 -40.1,-12.2 -80.3,-24.3 -120.4,-36.5 -5.6,-1.1 -11.2,-2.2 -16.9,-3.2 -34.5,-19.9 -72.6,-30.3 -110,-42.6 -3.5,-0.6 -6.9,-1.1 -10.4,-1.6 -2.7,-1.7 -5.5,-3.5 -8.3,-5.2 -34.7,-18 -69.7,-35.4 -107.3,-46.7 -84.7,-46.2 -169.5,-92.3 -254.2,-138.4l0.1 0.4c-2,-1.7 -4.1,-3.2 -6.1,-4.8 -1.5,-1.5 -3.3,-2 -5.3,-1.7 -2.7,-1.9 -5.4,-4 -8,-5.9l-0.2 -0.1c-4.1,-2.6 -8.2,-5.1 -12.4,-7.7 -2.2,-1.7 -4.4,-3.3 -6.6,-5 -26.8,-24.3 -58.1,-42.3 -88.4,-61.8 -1.5,-1.6 -3.2,-2.2 -5.3,-1.9 -2.6,-2 -5.1,-4 -7.6,-6 -5.3,-5 -10.1,-10.5 -15.8,-14.9 -138.8,-105.9 -267.9,-222.5 -379.2,-357.6 -46.8,-56.9 -91.8,-115.3 -137.6,-173 -2.1,-2.3 -4.1,-4.6 -6.2,-6.9l0.5 0.5c-0.4,-5.2 -2.1,-9.7 -7,-12.4l-0 -0.1c-21.6,-41.2 -48,-79.2 -75.5,-116.5 0.1,-4.6 -1,-8.6 -5.7,-10.7 -21.7,-40.1 -43.5,-80.2 -65.1,-120.3 -1.7,-2.3 -3.5,-4.6 -5.2,-6.9l0.2 0c-10,-22.7 -19.9,-45.4 -29.9,-68.1 -6.2,-14 -14.9,-19.8 -28.5,-8.1 -45.7,15.5 -87.5,40 -132,58 -55.3,22.4 -105.7,63.3 -171.4,51.1l-2.1 -1.2c0,0 -2.3,0.3 -2.4,0.3 -2.8,-2 -5.7,-3.9 -8.6,-5.9 -4.1,-8.6 -10.5,-14.8 -18.9,-19.2 -2,-2.3 -4.2,-4.6 -6.3,-6.9 0,0 1.4,-0.3 1.4,-0.3 -5.4,-28.6 -8.8,-57.4 -6.9,-86.5 5.9,-5.8 5.3,-12.8 3.7,-20 0.2,-6.4 0.5,-12.9 0.8,-19.3 8.6,-41.9 10.9,-84.5 12.3,-127.1 7.3,-34.9 8.6,-70.4 9,-105.9 11.1,-50.7 12.5,-102.5 16.3,-154 5.4,-37.3 9.4,-74.8 8.8,-112.6 9.4,-44.4 13.5,-89.1 11.8,-134.4 -0.9,-40.6 18.5,-79.1 12.7,-120.2 10.6,-21.4 4.4,-45.2 10.7,-67.7 15.9,-56.6 62.3,-80 113.8,-50.5 42.7,24.5 81.9,55.1 122.6,83 9.5,6.5 18,14.7 29.8,17.1 0,0 0.6,-0.3 0.6,-0.3 2.3,2.3 4.5,4.7 6.7,7 2.3,1.6 4.7,3.2 7,4.8 36.1,30.1 74.2,57.2 114.5,81.4 20.6,18 42,35 67.2,46.6 16.8,18.4 37,32 59.2,43.1 15.7,12 30.8,24.9 47.1,36 69.1,46.9 134,99.8 206.1,142.4l0 -0.8c2.3,2 4.7,4.1 7,6.1 3.5,7.9 9.5,12.3 18.2,12.8l7.2 5.5c1.8,5.1 5.6,7.3 10.8,7.6 7,6.1 13.5,13 21.1,18.3 38.1,27 54.7,61.5 39.5,107.9 -21,34.1 -60.8,41.6 -90.4,63.7 -48.4,17 -95.3,37.4 -139.6,63.3l0.1 -0.1c-12.7,4.7 -25.4,9.3 -38,14.3 -9.7,3.8 -12.3,10.5 -7,19.9 15.3,27.2 22.9,58.5 44.6,82.2 -0.2,4.6 0.6,8.6 5,11 18.7,45.3 46.2,85.5 73.1,126.1 13.6,25.4 28.4,50 48.5,71.1 10.1,20.8 23.9,38.9 39.9,55.6 25.4,39.1 54.3,75.4 87.5,108.2 3.6,8.7 10.4,14.5 17.8,19.7 31.3,42.6 69.1,78.9 109.1,113.3 2.5,6.1 6.8,10.4 12.8,12.8 33.7,36.6 70.7,69.5 112.8,96.3l0.1 -0.3c2.3,2.1 4.5,4.3 6.7,6.4l-0.1 -0.2c2.3,2.1 4.5,4.3 6.8,6.4 6,9.3 15.2,14.2 24.7,18.8 26.3,26 55.8,47.4 89,63.7l0 -0.3c2.3,2.1 4.6,4.2 6.9,6.2 21.2,20.6 47.4,34.3 72.6,48.7 57,32.4 110.9,71.1 174.2,91.5l0.2 -1c2.2,1.8 4.4,3.7 6.6,5.5l2.1 1.1 2.4 -0.3c2.6,1.7 5.3,3.4 8,5.2l2.4 1.3 2.8 -0c6.9,8.6 16.2,12.2 26.9,12.7l-0.4 -0.3c3,5.1 7.8,6.1 13,6l1.9 1.1 2.1 -0.6 8.8 5.5 0.6 0.3c14.8,10.8 30.7,19.5 49.7,19.9l-0.1 -0.4c2.9,5.3 7.9,6 13.2,6.1l1.7 1 1.8 -0.7c2.9,1.7 5.8,3.3 8.7,5l2.9 1.2 3.2 -0c3.1,4.8 7.9,5.9 13.3,5.7l2 1.2 2.4 -0.3c9.3,9.7 21.3,12.2 34.1,12.6l1.5 0.9 1.4 -1c3,1.6 6.1,3.3 9.1,5l2.9 1.2 3.1 -0.1c5.4,6.6 13,6.5 20.4,6.9 1,1.4 2.4,2.2 4.1,2.4 76.4,29.7 155.2,49.7 236.4,60.5 3.1,0.6 6.2,1.1 9.3,1.7 75.4,19.8 151.9,31 230,30.8 7.9,7 17.1,5.2 26.3,3.6 13.4,0.3 26.8,0.7 40.2,1.1 11.7,7.7 23.5,7.4 35.3,0.1 59.7,3.2 119.3,2.8 178.9,-1.8 19.8,-1.4 39.6,-1.8 59.3,-4.2 67.3,-8.2 135.2,-12.5 200.6,-32.5 2.2,-0.1 4.4,-0.3 6.5,-0.5 5.3,1.3 9.8,0.3 13.5,-4 36.7,-4.3 72.4,-12.5 106.7,-26.3 22.1,-3 43.9,-7.2 63.3,-19 5.8,0.1 11,-1 14.8,-5.9 3.7,-0.5 7.4,-1 11.1,-1.5 2.9,-1.7 5.9,-3.3 8.9,-5l1.6 0.9 1.6 -1c5.9,-0 11.4,-1 15.2,-6.2 3.5,-0.5 7,-1 10.4,-1.6 44.1,-11.9 87,-26.5 126.6,-49.8 45.5,-12.4 85.8,-36.1 126.9,-57.9 43.1,-17.9 83.8,-40.1 121.4,-67.8 2.5,-1.7 5,-3.5 7.5,-5.3 94.4,-50.3 179.6,-113.3 258.3,-185.5 25.8,-18.5 50.1,-38.7 70,-63.7 16.7,-12.3 32.2,-26 44.1,-43.3 2.3,-2.5 4.5,-5 6.8,-7.4l-0.2 0.6c27.9,-22.3 52,-48.2 73.6,-76.5 16.4,-18.2 36.1,-33.6 46.6,-56.6 2.1,-2.4 4.2,-4.7 6.3,-7.1l-0 0.1c21.2,-17.7 36.8,-39.8 50.1,-63.7l0.3 -0.4c4.9,-2.5 6.8,-6.8 7.2,-12l-0.5 0.5 6.2 -6.9c59.3,-71.6 106.9,-150.3 147.6,-233.6 20.1,-26.2 34.4,-56 45.3,-86.5 22.3,-62.7 62.1,-106.5 124,-130.6 42.8,-9.3 84.6,-3.9 125.7,9.5 33.9,20.3 61.8,46.8 82.5,80.6 16.2,40.7 17.7,82.8 13.2,125.8 -18.9,40.2 -37.7,80.5 -56.6,120.6 -50.9,86.6 -101.8,173.1 -152.6,259.7 -7.1,4.2 -11.1,10.5 -12.5,18.5 -29.8,34.3 -55.4,71.7 -80.9,109.1 -17.4,17 -32.3,36.1 -45.6,56.4 -22.7,20.2 -42.1,42.9 -58,68.8l0.4 0.2c-2.5,2.1 -5,4.3 -7.5,6.5l-11.5 11.9c-2.3,2.5 -4.4,5.1 -6.6,7.6 -16.5,13.1 -31.1,27.9 -43.3,45.1 -21.5,16.5 -40.1,35.8 -57.6,56.5 -23.7,20.5 -49.3,39 -69.5,63.3 -28.2,17.9 -52.8,40.1 -76.3,63.6 -16.7,13 -33.4,26 -50,39.1 -42.3,26.6 -83,55.6 -122.2,86.5 -2.4,1.8 -4.8,3.6 -7.2,5.4 -41,21.4 -80.7,45.1 -118.1,72.5l-7 5.9 -0.1 -0.9c-32.3,9.2 -59.6,28.3 -87.7,45.6l-0.3 0.2c-2.8,1.9 -5.5,3.8 -8.2,5.7 -1.9,-0.5 -3.6,0 -5,1.4 -2.4,1.7 -4.8,3.4 -7.3,5.1 -2,-0.5 -3.9,-0 -5.5,1.4 -2.5,1.6 -5.1,3.2 -7.6,4.8 -1.6,-0.7 -3.2,-0.6 -4.6,0.7 -42.3,19.1 -84.5,38.3 -126.7,57.5 -41.9,13.7 -83.7,27.7 -122.8,48.6 -1.6,-0.5 -3,-0.2 -4.3,1 -46.6,9.1 -90.8,25.9 -135.1,42.6 -39.4,9.8 -78.8,19.6 -118.1,29.4z"/>
  <path class="fil0" d="M2443.2 2393.6c-142.8,8.6 -293.3,-24.5 -422.4,-123.6 -145.2,-111.5 -227.9,-258.4 -246.9,-444.3 -31.1,-304.7 188.7,-583.5 460.2,-647.1 27.2,-6.3 34.4,-19.8 33.2,-45.6 -1.8,-37.8 -0.5,-75.8 -0.4,-113.7 0.3,-119.1 91.4,-214.4 206.5,-216.1 114.3,-1.7 208.8,92.2 211.9,211.2 1.1,40.8 1.8,81.7 -0.3,122.4 -1.3,25.9 9.6,35.6 32.9,41.5 190.4,47.8 323.7,164.7 408.6,339.7 52.3,107.7 13.3,232.3 -89.4,285.1 -103.2,53.1 -228.1,13.4 -282.5,-93.8 -46.5,-91.6 -115.4,-138.7 -220.3,-131.3 -47.9,3.4 -96.2,0.3 -144.3,0.6 -112.9,0.9 -201.6,85.1 -202.3,191.7 -0.7,114 85,202.3 199.7,204.8 117.6,2.6 235.9,-9 351.3,26.9 230.1,71.5 373,226.4 428.1,458.1 78.7,330.5 -132.9,648.5 -445.3,730.9 -27.4,7.2 -35.7,19.5 -35.8,47.8 -0.1,56.5 8,113.4 -7.2,169.6 -28.1,103.8 -127.1,171.8 -231.1,157.8 -101.6,-13.6 -179.6,-104 -180.3,-209.2 -0.2,-36.4 -2.9,-73.2 0.6,-109.3 3.7,-37.8 -10.9,-53 -46.8,-62.9 -168.8,-46.3 -294.6,-148.7 -377.4,-302.6 -29.6,-55 -55.6,-111.2 -41.9,-178.3 17.5,-85.6 85.5,-154.7 173.4,-169 88.1,-14.4 174.1,28.5 215,108.8 21.2,41.6 40.2,84.1 81.6,111 32.4,21 66.2,35.6 106,35.2 67.1,-0.8 134.2,1.1 201.2,-0.2 99.2,-1.9 183.4,-88.8 185.9,-189.9 2.7,-104.5 -81.1,-200.7 -180.9,-205.8 -40.7,-2.1 -81.6,-0.3 -140.6,-0.3z"/>
 </g>
</svg>
