<svg xmlns="http://www.w3.org/2000/svg" width="600" height="300" viewBox="0 0 128 122"><defs><style>.cls-1{fill:#4f4f4f;}.cls-2{fill:none;stroke:#4f4f4f;stroke-miterlimit:10;stroke-width:2px;}</style></defs><title>Variedades</title><g id="Camada_2" data-name="Camada 2"><g id="Camada_1-2" data-name="Camada 1"><path class="cls-1" d="M1,52.34a21.11,21.11,0,0,1,1.38-3.27A8.09,8.09,0,0,1,12.3,46a8.21,8.21,0,1,1-11.05,9.6c-.07-.26-.16-.51-.24-.76Zm13.14,1.2a5,5,0,0,0-4.9-4.9,4.93,4.93,0,1,0,0,9.85,5,5,0,0,0,5-5"/><path class="cls-2" d="M1,52.34a21.11,21.11,0,0,1,1.38-3.27A8.09,8.09,0,0,1,12.3,46a8.21,8.21,0,1,1-11.05,9.6c-.07-.26-.16-.51-.24-.76Zm13.14,1.2a5,5,0,0,0-4.9-4.9,4.93,4.93,0,1,0,0,9.85A5,5,0,0,0,14.14,53.54Z"/><path class="cls-1" d="M52.35,106.14A20.78,20.78,0,0,1,49,104.7a8.07,8.07,0,0,1-3-9.85,8.21,8.21,0,1,1,9.7,11c-.29.08-.57.18-.86.27ZM53.61,93a4.93,4.93,0,1,0,4.9,4.9,5,5,0,0,0-4.9-4.9"/><path class="cls-2" d="M52.35,106.14A20.78,20.78,0,0,1,49,104.7a8.07,8.07,0,0,1-3-9.85,8.21,8.21,0,1,1,9.7,11c-.29.08-.57.18-.86.27ZM53.61,93a4.93,4.93,0,1,0,4.9,4.9A5,5,0,0,0,53.61,93Z"/><path class="cls-1" d="M46.73,48V43.54c0-2.74,0-5.48,0-8.21a4.5,4.5,0,0,1,4.57-4.75,4.6,4.6,0,0,1,4.52,4.84c0,3.35,0,6.7,0,9.68,1.23.86,2.24,1.57,3.25,2.27a1.43,1.43,0,0,0,.54.21c.27,0,.59,0,.81.08,1,.49,1.84,1.14,2.83,1.54a28.75,28.75,0,0,1,3.08.89,4,4,0,0,1,2,3.69q0,5.08,0,10.16a15.94,15.94,0,0,1-1.72,6.38c-.67,1.52-1.21,3.1-1.8,4.65a2.16,2.16,0,0,1-2.07,1.58q-6.16,0-12.32,0a2.09,2.09,0,0,1-2.14-2.18,10.9,10.9,0,0,0-1.86-5.44c-1.27-2.29-2.37-4.68-3.5-7.06q-1.51-3.19-2.9-6.44a21.24,21.24,0,0,1-1.12-3.18,4.06,4.06,0,0,1,1.44-4.5,4.53,4.53,0,0,1,4.92-.53c.43.19.83.46,1.42.8M61.64,73.23c.7-1.5,1.47-2.92,2-4.41A16.73,16.73,0,0,0,65,64.14c.21-3.37.08-6.77.07-10.15a1.33,1.33,0,0,0-2-1.28c-.53.22-1,.49-1.42.68-.58-.87-1-2.07-1.67-2.33s-1.89.33-2.91.56c-.09-.41-.19-.87-.3-1.33-.31-1.36-1-1.71-2.32-1.21l-1.89.71V48.08q0-6.31,0-12.62c0-1-.52-1.66-1.32-1.59-1,.07-1.21.74-1.2,1.59,0,.27,0,.55,0,.82q0,8.16,0,16.31a2.17,2.17,0,0,1-.07,1c-.33.55-.69,1.27-1.21,1.46a1.55,1.55,0,0,1-1.94-.93,5.9,5.9,0,0,0-.4-.94,22.77,22.77,0,0,0-2.27-2.84,1.67,1.67,0,0,0-1.57,0c-.31.19-.42.94-.39,1.42a4.67,4.67,0,0,0,.52,1.54c.89,2,1.8,3.91,2.71,5.85,1.26,2.68,2.42,5.42,3.82,8,1,1.94,2.17,3.79,2.32,6.09Z"/><path class="cls-2" d="M46.73,48V43.54c0-2.74,0-5.48,0-8.21a4.5,4.5,0,0,1,4.57-4.75,4.6,4.6,0,0,1,4.52,4.84c0,3.35,0,6.7,0,9.68,1.23.86,2.24,1.57,3.25,2.27a1.43,1.43,0,0,0,.54.21c.27,0,.59,0,.81.08,1,.49,1.84,1.14,2.83,1.54a28.75,28.75,0,0,1,3.08.89,4,4,0,0,1,2,3.69q0,5.08,0,10.16a15.94,15.94,0,0,1-1.72,6.38c-.67,1.52-1.21,3.1-1.8,4.65a2.16,2.16,0,0,1-2.07,1.58q-6.16,0-12.32,0a2.09,2.09,0,0,1-2.14-2.18,10.9,10.9,0,0,0-1.86-5.44c-1.27-2.29-2.37-4.68-3.5-7.06q-1.51-3.19-2.9-6.44a21.24,21.24,0,0,1-1.12-3.18,4.06,4.06,0,0,1,1.44-4.5,4.53,4.53,0,0,1,4.92-.53C45.74,47.4,46.14,47.67,46.73,48ZM61.64,73.23c.7-1.5,1.47-2.92,2-4.41A16.73,16.73,0,0,0,65,64.14c.21-3.37.08-6.77.07-10.15a1.33,1.33,0,0,0-2-1.28c-.53.22-1,.49-1.42.68-.58-.87-1-2.07-1.67-2.33s-1.89.33-2.91.56c-.09-.41-.19-.87-.3-1.33-.31-1.36-1-1.71-2.32-1.21l-1.89.71V48.08q0-6.31,0-12.62c0-1-.52-1.66-1.32-1.59-1,.07-1.21.74-1.2,1.59,0,.27,0,.55,0,.82q0,8.16,0,16.31a2.17,2.17,0,0,1-.07,1c-.33.55-.69,1.27-1.21,1.46a1.55,1.55,0,0,1-1.94-.93,5.9,5.9,0,0,0-.4-.94,22.77,22.77,0,0,0-2.27-2.84,1.67,1.67,0,0,0-1.57,0c-.31.19-.42.94-.39,1.42a4.67,4.67,0,0,0,.52,1.54c.89,2,1.8,3.91,2.71,5.85,1.26,2.68,2.42,5.42,3.82,8,1,1.94,2.17,3.79,2.32,6.09Z"/><path class="cls-1" d="M61.79,9.24A8.21,8.21,0,1,1,53.58,1a8.23,8.23,0,0,1,8.21,8.24m-8.23,4.9a5,5,0,0,0,4.94-5,4.93,4.93,0,1,0-9.85.07,5,5,0,0,0,4.91,4.89"/><path class="cls-2" d="M61.79,9.24A8.21,8.21,0,1,1,53.58,1,8.23,8.23,0,0,1,61.79,9.24Zm-8.23,4.9a5,5,0,0,0,4.94-5,4.93,4.93,0,1,0-9.85.07A5,5,0,0,0,53.57,14.14Z"/><path class="cls-1" d="M30.57,22.33a8.21,8.21,0,1,1-8.27-8.18,8.23,8.23,0,0,1,8.27,8.18m-3.28,0a4.93,4.93,0,1,0-4.86,5,5,5,0,0,0,4.86-5"/><path class="cls-2" d="M30.57,22.33a8.21,8.21,0,1,1-8.27-8.18A8.23,8.23,0,0,1,30.57,22.33Zm-3.28,0a4.93,4.93,0,1,0-4.86,5A5,5,0,0,0,27.29,22.33Z"/><path class="cls-1" d="M76.59,22.36a8.21,8.21,0,1,1,8.25,8.2,8.23,8.23,0,0,1-8.25-8.2m13.14,0a4.93,4.93,0,1,0-5,5,5,5,0,0,0,5-5"/><path class="cls-2" d="M76.59,22.36a8.21,8.21,0,1,1,8.25,8.2A8.23,8.23,0,0,1,76.59,22.36Zm13.14,0a4.93,4.93,0,1,0-5,5A5,5,0,0,0,89.73,22.33Z"/><path class="cls-1" d="M98,45.36a8.21,8.21,0,1,1-8.22,8.23A8.23,8.23,0,0,1,98,45.36m0,13.14A4.93,4.93,0,1,0,93,53.58,5,5,0,0,0,97.9,58.5"/><path class="cls-2" d="M98,45.36a8.21,8.21,0,1,1-8.22,8.23A8.23,8.23,0,0,1,98,45.36Zm0,13.14A4.93,4.93,0,1,0,93,53.58,5,5,0,0,0,97.9,58.5Z"/><path class="cls-1" d="M22.36,93a8.21,8.21,0,1,1,8.21-8.24A8.23,8.23,0,0,1,22.36,93m-.05-13.14a4.93,4.93,0,1,0,5,4.83,5,5,0,0,0-5-4.83"/><path class="cls-2" d="M22.36,93a8.21,8.21,0,1,1,8.21-8.24A8.23,8.23,0,0,1,22.36,93Zm-.05-13.14a4.93,4.93,0,1,0,5,4.83A5,5,0,0,0,22.31,79.86Z"/><path class="cls-1" d="M93,84.86a8.21,8.21,0,1,1-8.16-8.29A8.23,8.23,0,0,1,93,84.86m-3.29-.08a4.93,4.93,0,1,0-5,4.93,5,5,0,0,0,5-4.93"/><path class="cls-2" d="M93,84.86a8.21,8.21,0,1,1-8.16-8.29A8.23,8.23,0,0,1,93,84.86Zm-3.29-.08a4.93,4.93,0,1,0-5,4.93A5,5,0,0,0,89.73,84.78Z"/></g></g></svg>