<svg xmlns="http://www.w3.org/2000/svg" width="600" height="300" viewBox="0 0 128 122"><defs><style>.cls-1{fill:#4f4f4f;}.cls-2{fill:none;stroke:#4f4f4f;stroke-miterlimit:10;stroke-width:2px;}</style></defs><title>visao-global</title><g id="Camada_2" data-name="Camada 2"><g id="Camada_1-2" data-name="Camada 1"><path class="cls-1" d="M15.84,12.86c.72-4.15,3-6.83,6.53-7.5A38.85,38.85,0,0,1,27,5.11a5.47,5.47,0,0,0,1.76-.36,46.46,46.46,0,0,1,36.72,0A4,4,0,0,0,67,5.11c3.23,0,6.47,0,9.7,0a8.27,8.27,0,0,1,8.18,5.46,2.24,2.24,0,0,0,.44.67c3,3.1,3.09,6.77.26,10a.82.82,0,0,0-.1.14c1.19,2.25,2.46,4.4,3.5,6.66A45.67,45.67,0,0,1,77.2,81.61a44.37,44.37,0,0,1-23,10.69C39.78,94.37,27,90.58,16.07,80.82a5.83,5.83,0,0,0-2.22-1.32,8.21,8.21,0,0,1-5.67-7.36,3.3,3.3,0,0,0-.42-1.35c-8.7-15.18-9-30.52-1-46.05a3.33,3.33,0,0,0,.36-1.44q0-4.8,0-9.61c0-.75.4-.84,1-.84h7.7ZM77,47.65a7,7,0,0,1,7.65-6.36,6.87,6.87,0,0,1,.67,13.56c-3.94.75-6.76-1.29-8.27-6H69.91c0,4.89,0,9.71,0,14.52a1,1,0,0,0,.38.73c.54.39,1.14.7,1.71,1l.46-.36A2.84,2.84,0,0,1,76,65a2.92,2.92,0,0,1,.65,3.43,2.86,2.86,0,0,1-3.17,1.46,2.6,2.6,0,0,1-2.13-2.7c.14-1.21-.57-1.4-1.47-1.77,0,2.16,0,4.22,0,6.29a8.3,8.3,0,0,1-3.33,6.72c-.15.11-.27.25-.54.5,4.18,0,8.17,0,12.16,0a1.42,1.42,0,0,0,.82-.48A44.8,44.8,0,0,0,86.1,25C85.56,24,85,23.12,84.4,22.2c-2.58,1.33-5.08,1.53-7.41,0a4.75,4.75,0,0,0-3.2-.9c-.7.05-1.4,0-2.1,0H69.91v26.4Zm-48-15c.64-11.89,14.91-17.48,23.16-9.74,2.2-2.15,4.41-4.29,6.58-6.47a2,2,0,0,1,1.6-.65c2.41,0,4.82,0,7.23,0,1.18,0,1.19,0,1.15-1.19-.1-3.3.82-6.14,3.65-8.12,0,0,0-.1,0-.24H24.77c-.4,0-.79,0-1.19,0a7,7,0,0,0-6.24,5c-.15.48-.21,1-.32,1.56,2.4,0,4.65,0,6.91,0,.81,0,1.15.23,1.14,1.09q-.06,4.48,0,9c0,.85-.31,1.1-1.13,1.09-3,0-5.92,0-8.87,0-.29,0-.57,0-.93,0a2,2,0,0,0,.19.33q4,4,7.94,8a1,1,0,0,0,.61.34c2,0,4.07,0,6.17,0M17,54.3c.1,0,.17,0,.21,0,1.2-.51,2.4-1,3.61-1.54a1.22,1.22,0,0,0,.86-1,2.81,2.81,0,0,1,5.55.9,1,1,0,0,0,.56,1.07l10,6.43c.28.18.56.34.83.5,1.81-1.39,3-1.24,4.72.58,3.15-1.34,6.32-2.68,9.46-4.06a1.22,1.22,0,0,0,.49-.82,2.85,2.85,0,0,1,5.69.41,1.38,1.38,0,0,0,.55,1c2.82,1.76,5.67,3.46,8.51,5.18.22.13.46.23.72.36V48.85H67.64c-3.45,0-6.89,0-10.34,0a2,2,0,0,1-1.6-.65C54.36,46.8,53,45.43,51.61,44c-4.52,3.32-9.34,4-14.38,1.78s-7.73-6.4-8.2-12c-2,0-3.87,0-5.78,0A2.29,2.29,0,0,1,21.33,33C20,31.6,18.59,30.22,17,28.64Zm4.76-.69c-1.36.6-2.68,1.23-4,1.77A1.09,1.09,0,0,0,17,56.59c0,4.57,0,9.15,0,13.72,0,.3,0,.6.05,1h1.13q17.56,0,35.13,0c.88,0,1.23.22,1.28,1.16A7.08,7.08,0,0,0,61.26,79a7,7,0,0,0,7.38-5.86,71.68,71.68,0,0,0,.17-8c0-.26-.35-.61-.62-.77-3-1.83-6-3.63-9-5.43-.25-.15-.52-.27-.76-.4-1.76,1.46-2.79,1.37-4.76-.36-3.09,1.33-6.19,2.68-9.3,4a1.16,1.16,0,0,0-.84,1,2.81,2.81,0,0,1-5.57-.8.93.93,0,0,0-.55-1.07l-8.61-5.54-2.18-1.4c-2,1.39-3.4,1.18-4.84-.75M15.9,54V52.93c0-7.74,0-15.49,0-23.23A5,5,0,0,0,14.42,26a5.27,5.27,0,0,0-5-2,1.45,1.45,0,0,0-1.28.77,45,45,0,0,0-.35,44c1,1.87,2.12,2.8,4.28,2.47a24.89,24.89,0,0,1,3.68,0V58.38l-.3.16a2.86,2.86,0,0,1-3.62-.13,2.89,2.89,0,0,1-.44-3.67,1,1,0,0,0-.06-.86c-.95-1.46-1.92-2.9-2.94-4.3a1.44,1.44,0,0,0-.87-.36A9.85,9.85,0,0,1,5.92,49,2.77,2.77,0,0,1,4.4,45.25a2.83,2.83,0,1,1,5,2.57c-.18.33-.48.57-.14,1,1,1.46,2,3,3.06,4.44a1,1,0,0,0,.64.34c.92.14,1.85.23,2.91.36m1,26.12c18.06,16.7,45.38,14.47,60.14,0ZM68.69,47.69V17c-2.84,0-5.61,0-8.39,0a.89.89,0,0,0-.57.22c-2.23,2.21-4.44,4.43-6.65,6.63,5.09,7.92,5,12-.64,19.49,1.29,1.28,2.56,2.59,3.89,3.84a2.05,2.05,0,0,0,1.26.52c3.2,0,6.4,0,9.6,0ZM57,78.89l.06-.19-.69-.56a7.69,7.69,0,0,1-2.86-4.85c-.13-.85-.43-1-1.2-1q-21,0-42,0c-.32,0-.64,0-.95,0a6.12,6.12,0,0,0,1.45,3.85,7.28,7.28,0,0,0,5.93,2.69q18.06,0,36.12,0Zm-22.56-55a1.29,1.29,0,0,0,.15.22c2.73,2.74,5.46,5.48,8.22,8.19a1.77,1.77,0,0,0,1.14.36c3.35,0,6.7,0,10.05,0h1.43c.53-3.89-2.83-8.93-7.17-10.95-4.92-2.29-10.65-1.11-13.81,2.16m-.11,18.57c3.1,3.49,9.08,4.46,13.76,2.35,4.46-2,7.81-7,7.34-11a2.7,2.7,0,0,0-.34,0c-3.81,0-7.62,0-11.42,0a1.64,1.64,0,0,0-1,.47C40.8,36.14,39,38,37.1,39.85c-.9.89-1.84,1.75-2.76,2.62m-26-19.68H23.91V14.06H8.33Zm33.44,10.5-8.25-8.45c-4.41,3.9-4.42,12.88-.1,16.78l8.34-8.34M80.65,22.1a5.73,5.73,0,1,0,0-11.46,5.73,5.73,0,0,0,0,11.46M84,53.78a5.72,5.72,0,1,0-5.73-5.68A5.69,5.69,0,0,0,84,53.78M31.52,5.07H62.63a43.18,43.18,0,0,0-31.11,0M83.08,9.61a6.07,6.07,0,0,0-2.6-2.46,6.94,6.94,0,0,0-7.73.59c-2.72,2-3.05,4.91-2.72,8.08,1,0,2,0,3,0,.6,0,.82-.17.93-.79a6.62,6.62,0,0,1,5.47-5.41,23.92,23.92,0,0,1,3.61,0M70,20h4.75l-1-3H70ZM57.86,56.65a1.68,1.68,0,0,0-1.67-1.7,1.74,1.74,0,0,0-1.74,1.74,1.69,1.69,0,0,0,1.72,1.65,1.71,1.71,0,0,0,1.69-1.69M26.18,52.42a1.71,1.71,0,0,0-1.71-1.67,1.69,1.69,0,1,0,.06,3.39,1.69,1.69,0,0,0,1.66-1.72M40.74,61a1.71,1.71,0,1,0,.1,3.41,1.7,1.7,0,0,0,1.63-1.75A1.73,1.73,0,0,0,40.74,61M8.62,46.44A1.7,1.7,0,0,0,6.9,44.79,1.69,1.69,0,1,0,7,48.16a1.71,1.71,0,0,0,1.65-1.72M75.83,67.12a1.62,1.62,0,0,0-1.68-1.65,1.66,1.66,0,0,0-1.67,1.77,1.68,1.68,0,0,0,3.35-.12M15.42,56.35A1.69,1.69,0,1,0,13.75,58a1.67,1.67,0,0,0,1.66-1.7"/><path class="cls-2" d="M15.84,12.86c.72-4.15,3-6.83,6.53-7.5A38.85,38.85,0,0,1,27,5.11a5.47,5.47,0,0,0,1.76-.36,46.46,46.46,0,0,1,36.72,0A4,4,0,0,0,67,5.11c3.23,0,6.47,0,9.7,0a8.27,8.27,0,0,1,8.18,5.46,2.24,2.24,0,0,0,.44.67c3,3.1,3.09,6.77.26,10a.82.82,0,0,0-.1.14c1.19,2.25,2.46,4.4,3.5,6.66A45.67,45.67,0,0,1,77.2,81.61a44.37,44.37,0,0,1-23,10.69C39.78,94.37,27,90.58,16.07,80.82a5.83,5.83,0,0,0-2.22-1.32,8.21,8.21,0,0,1-5.67-7.36,3.3,3.3,0,0,0-.42-1.35c-8.7-15.18-9-30.52-1-46.05a3.33,3.33,0,0,0,.36-1.44q0-4.8,0-9.61c0-.75.4-.84,1-.84h7.7ZM77,47.65a7,7,0,0,1,7.65-6.36,6.87,6.87,0,0,1,.67,13.56c-3.94.75-6.76-1.29-8.27-6H69.91c0,4.89,0,9.71,0,14.52a1,1,0,0,0,.38.73c.54.39,1.14.7,1.71,1l.46-.36A2.84,2.84,0,0,1,76,65a2.92,2.92,0,0,1,.65,3.43,2.86,2.86,0,0,1-3.17,1.46,2.6,2.6,0,0,1-2.13-2.7c.14-1.21-.57-1.4-1.47-1.77,0,2.16,0,4.22,0,6.29a8.3,8.3,0,0,1-3.33,6.72c-.15.11-.27.25-.54.5,4.18,0,8.17,0,12.16,0a1.42,1.42,0,0,0,.82-.48A44.8,44.8,0,0,0,86.1,25C85.56,24,85,23.12,84.4,22.2c-2.58,1.33-5.08,1.53-7.41,0a4.75,4.75,0,0,0-3.2-.9c-.7.05-1.4,0-2.1,0H69.91v26.4Zm-48-15c.64-11.89,14.91-17.48,23.16-9.74,2.2-2.15,4.41-4.29,6.58-6.47a2,2,0,0,1,1.6-.65c2.41,0,4.82,0,7.23,0,1.18,0,1.19,0,1.15-1.19-.1-3.3.82-6.14,3.65-8.12,0,0,0-.1,0-.24H24.77c-.4,0-.79,0-1.19,0a7,7,0,0,0-6.24,5c-.15.48-.21,1-.32,1.56,2.4,0,4.65,0,6.91,0,.81,0,1.15.23,1.14,1.09q-.06,4.48,0,9c0,.85-.31,1.1-1.13,1.09-3,0-5.92,0-8.87,0-.29,0-.57,0-.93,0a2,2,0,0,0,.19.33q4,4,7.94,8a1,1,0,0,0,.61.34C24.9,32.69,26.94,32.68,29,32.68ZM17,54.3c.1,0,.17,0,.21,0,1.2-.51,2.4-1,3.61-1.54a1.22,1.22,0,0,0,.86-1,2.81,2.81,0,0,1,5.55.9,1,1,0,0,0,.56,1.07l10,6.43c.28.18.56.34.83.5,1.81-1.39,3-1.24,4.72.58,3.15-1.34,6.32-2.68,9.46-4.06a1.22,1.22,0,0,0,.49-.82,2.85,2.85,0,0,1,5.69.41,1.38,1.38,0,0,0,.55,1c2.82,1.76,5.67,3.46,8.51,5.18.22.13.46.23.72.36V48.85H67.64c-3.45,0-6.89,0-10.34,0a2,2,0,0,1-1.6-.65C54.36,46.8,53,45.43,51.61,44c-4.52,3.32-9.34,4-14.38,1.78s-7.73-6.4-8.2-12c-2,0-3.87,0-5.78,0A2.29,2.29,0,0,1,21.33,33C20,31.6,18.59,30.22,17,28.64Zm4.76-.69c-1.36.6-2.68,1.23-4,1.77A1.09,1.09,0,0,0,17,56.59c0,4.57,0,9.15,0,13.72,0,.3,0,.6.05,1h1.13q17.56,0,35.13,0c.88,0,1.23.22,1.28,1.16A7.08,7.08,0,0,0,61.26,79a7,7,0,0,0,7.38-5.86,71.68,71.68,0,0,0,.17-8c0-.26-.35-.61-.62-.77-3-1.83-6-3.63-9-5.43-.25-.15-.52-.27-.76-.4-1.76,1.46-2.79,1.37-4.76-.36-3.09,1.33-6.19,2.68-9.3,4a1.16,1.16,0,0,0-.84,1,2.81,2.81,0,0,1-5.57-.8.93.93,0,0,0-.55-1.07l-8.61-5.54-2.18-1.4C24.62,55.75,23.23,55.54,21.79,53.61ZM15.9,54V52.93c0-7.74,0-15.49,0-23.23A5,5,0,0,0,14.42,26a5.27,5.27,0,0,0-5-2,1.45,1.45,0,0,0-1.28.77,45,45,0,0,0-.35,44c1,1.87,2.12,2.8,4.28,2.47a24.89,24.89,0,0,1,3.68,0V58.38l-.3.16a2.86,2.86,0,0,1-3.62-.13,2.89,2.89,0,0,1-.44-3.67,1,1,0,0,0-.06-.86c-.95-1.46-1.92-2.9-2.94-4.3a1.44,1.44,0,0,0-.87-.36A9.85,9.85,0,0,1,5.92,49,2.77,2.77,0,0,1,4.4,45.25a2.83,2.83,0,1,1,5,2.57c-.18.33-.48.57-.14,1,1,1.46,2,3,3.06,4.44a1,1,0,0,0,.64.34C13.92,53.76,14.85,53.86,15.9,54Zm1,26.12c18.06,16.7,45.38,14.47,60.14,0ZM68.69,47.69V17c-2.84,0-5.61,0-8.39,0a.89.89,0,0,0-.57.22c-2.23,2.21-4.44,4.43-6.65,6.63,5.09,7.92,5,12-.64,19.49,1.29,1.28,2.56,2.59,3.89,3.84a2.05,2.05,0,0,0,1.26.52c3.2,0,6.4,0,9.6,0ZM57,78.89l.06-.19-.69-.56a7.69,7.69,0,0,1-2.86-4.85c-.13-.85-.43-1-1.2-1q-21,0-42,0c-.32,0-.64,0-.95,0a6.12,6.12,0,0,0,1.45,3.85,7.28,7.28,0,0,0,5.93,2.69q18.06,0,36.12,0Zm-22.56-55a1.29,1.29,0,0,0,.15.22c2.73,2.74,5.46,5.48,8.22,8.19a1.77,1.77,0,0,0,1.14.36c3.35,0,6.7,0,10.05,0h1.43c.53-3.89-2.83-8.93-7.17-10.95C43.34,19.45,37.61,20.63,34.45,23.9Zm-.11,18.57c3.1,3.49,9.08,4.46,13.76,2.35,4.46-2,7.81-7,7.34-11a2.7,2.7,0,0,0-.34,0c-3.81,0-7.62,0-11.42,0a1.64,1.64,0,0,0-1,.47C40.8,36.14,39,38,37.1,39.85,36.2,40.75,35.26,41.61,34.35,42.47Zm-26-19.68H23.91V14.06H8.33Zm33.44,10.5-8.25-8.45c-4.41,3.9-4.42,12.88-.1,16.78ZM80.65,22.1a5.73,5.73,0,1,0,0-11.46,5.73,5.73,0,0,0,0,11.46ZM84,53.78a5.72,5.72,0,1,0-5.73-5.68A5.69,5.69,0,0,0,84,53.78ZM31.52,5.07H62.63A43.18,43.18,0,0,0,31.52,5.07ZM83.08,9.61a6.07,6.07,0,0,0-2.6-2.46,6.94,6.94,0,0,0-7.73.59c-2.72,2-3.05,4.91-2.72,8.08,1,0,2,0,3,0,.6,0,.82-.17.93-.79a6.62,6.62,0,0,1,5.47-5.41A23.92,23.92,0,0,1,83.08,9.61ZM70,20h4.75l-1-3H70ZM57.86,56.65a1.68,1.68,0,0,0-1.67-1.7,1.74,1.74,0,0,0-1.74,1.74,1.69,1.69,0,0,0,1.72,1.65A1.71,1.71,0,0,0,57.86,56.65ZM26.18,52.42a1.71,1.71,0,0,0-1.71-1.67,1.69,1.69,0,1,0,.06,3.39A1.69,1.69,0,0,0,26.18,52.42ZM40.74,61a1.71,1.71,0,1,0,.1,3.41,1.7,1.7,0,0,0,1.63-1.75A1.73,1.73,0,0,0,40.74,61ZM8.62,46.44A1.7,1.7,0,0,0,6.9,44.79,1.69,1.69,0,1,0,7,48.16,1.71,1.71,0,0,0,8.62,46.44ZM75.83,67.12a1.62,1.62,0,0,0-1.68-1.65,1.66,1.66,0,0,0-1.67,1.77,1.68,1.68,0,0,0,3.35-.12ZM15.42,56.35A1.69,1.69,0,1,0,13.75,58,1.67,1.67,0,0,0,15.42,56.35Z"/><path class="cls-1" d="M38.41,82.93h6.3c.45,0,1.06-.07,1,.58,0,.23-.67.55-1,.56q-6.39.06-12.78,0c-.33,0-.9-.32-.93-.54-.08-.68.53-.59,1-.59h6.48"/><path class="cls-2" d="M38.41,82.93h6.3c.45,0,1.06-.07,1,.58,0,.23-.67.55-1,.56q-6.39.06-12.78,0c-.33,0-.9-.32-.93-.54-.08-.68.53-.59,1-.59Z"/><path class="cls-1" d="M55.75,86.87c-2.13,0-4.26,0-6.39,0-.33,0-.9-.31-.93-.54-.08-.6.48-.57.9-.57h13c.42,0,1,0,.87.58,0,.24-.6.52-.93.53-2.16,0-4.32,0-6.48,0"/><path class="cls-2" d="M55.75,86.87c-2.13,0-4.26,0-6.39,0-.33,0-.9-.31-.93-.54-.08-.6.48-.57.9-.57h13c.42,0,1,0,.87.58,0,.24-.6.52-.93.53C60.07,86.89,57.91,86.87,55.75,86.87Z"/><path class="cls-1" d="M48.56,82.94a5,5,0,0,1,1.08,0c.21,0,.55.34.53.46s-.29.59-.48.61a14.52,14.52,0,0,1-2.35,0,.71.71,0,0,1-.43-.55.74.74,0,0,1,.48-.51,5.52,5.52,0,0,1,1.17,0Z"/><path class="cls-2" d="M48.56,82.94a5,5,0,0,1,1.08,0c.21,0,.55.34.53.46s-.29.59-.48.61a14.52,14.52,0,0,1-2.35,0,.71.71,0,0,1-.43-.55.74.74,0,0,1,.48-.51,5.52,5.52,0,0,1,1.17,0Z"/><path class="cls-1" d="M45.52,86.86a3.57,3.57,0,0,1-1,0c-.23-.07-.4-.35-.6-.53.19-.19.36-.52.57-.54a12.15,12.15,0,0,1,2.17,0c.21,0,.4.34.6.52-.19.19-.35.5-.57.56a5,5,0,0,1-1.17,0Z"/><path class="cls-2" d="M45.52,86.86a3.57,3.57,0,0,1-1,0c-.23-.07-.4-.35-.6-.53.19-.19.36-.52.57-.54a12.15,12.15,0,0,1,2.17,0c.21,0,.4.34.6.52-.19.19-.35.5-.57.56a5,5,0,0,1-1.17,0Z"/><path class="cls-1" d="M52.3,84.07a1.87,1.87,0,0,1-.72,0c-.21-.09-.51-.39-.47-.52a.88.88,0,0,1,.54-.56,2.79,2.79,0,0,1,1.26,0c.28.07.5.38.74.59a4.26,4.26,0,0,1-.72.53,1.61,1.61,0,0,1-.63,0Z"/><path class="cls-2" d="M52.3,84.07a1.87,1.87,0,0,1-.72,0c-.21-.09-.51-.39-.47-.52a.88.88,0,0,1,.54-.56,2.79,2.79,0,0,1,1.26,0c.28.07.5.38.74.59a4.26,4.26,0,0,1-.72.53,1.61,1.61,0,0,1-.63,0Z"/><path class="cls-1" d="M41.75,86.87c-.18,0-.4.07-.53,0a5.42,5.42,0,0,1-.72-.62,2.52,2.52,0,0,1,.74-.48,2.6,2.6,0,0,1,1.17,0c.25.06.44.35.66.54a3.8,3.8,0,0,1-.68.54,1.55,1.55,0,0,1-.63,0Z"/><path class="cls-2" d="M41.75,86.87c-.18,0-.4.07-.53,0a5.42,5.42,0,0,1-.72-.62,2.52,2.52,0,0,1,.74-.48,2.6,2.6,0,0,1,1.17,0c.25.06.44.35.66.54a3.8,3.8,0,0,1-.68.54,1.55,1.55,0,0,1-.63,0Z"/><path class="cls-1" d="M16.11,20.81H11.19c-.43,0-.93.06-.93-.57s.53-.55.94-.55H21c.42,0,.94-.06.94.57s-.52.56-.94.56H16.11"/><path class="cls-2" d="M16.11,20.81H11.19c-.43,0-.93.06-.93-.57s.53-.55.94-.55H21c.42,0,.94-.06.94.57s-.52.56-.94.56Z"/><path class="cls-1" d="M16.09,17.22c-1.65,0-3.29,0-4.94,0-.31,0-.82-.29-.86-.51-.1-.6.43-.61.87-.61,3.29,0,6.59,0,9.88,0,.32,0,.88.34.91.57.08.63-.51.54-.92.54H16.09"/><path class="cls-2" d="M16.09,17.22c-1.65,0-3.29,0-4.94,0-.31,0-.82-.29-.86-.51-.1-.6.43-.61.87-.61,3.29,0,6.59,0,9.88,0,.32,0,.88.34.91.57.08.63-.51.54-.92.54Z"/><path class="cls-1" d="M79.41,17.15c-1.25-.47-1.21-.43-.37-1.26.23-.23.16-.79.19-1.2a1.89,1.89,0,0,1,2.33-1.89,6.75,6.75,0,0,1,1.56.79l-.69.63,0-.26c-.6,0-1.39-.27-1.74,0s-.34,1.13-.44,1.55c.46.74,1.8-.25,1.56,1.23l-1.41.09v1.59h2.51c0,.34,0,.6.06.93H78.46l.95-2.23"/><path class="cls-2" d="M79.41,17.15c-1.25-.47-1.21-.43-.37-1.26.23-.23.16-.79.19-1.2a1.89,1.89,0,0,1,2.33-1.89,6.75,6.75,0,0,1,1.56.79l-.69.63,0-.26c-.6,0-1.39-.27-1.74,0s-.34,1.13-.44,1.55c.46.74,1.8-.25,1.56,1.23l-1.41.09v1.59h2.51c0,.34,0,.6.06.93H78.46Z"/><path class="cls-1" d="M86.32,45.43l-.54.73-1.4-.54c0,.45,0,.78,0,1.1a.72.72,0,0,0,.64.9,1.75,1.75,0,0,1,1.52,1.79c0,.92-.55,1.28-1.59,1.86-.68.38-1,.53-1.65,0a7.25,7.25,0,0,0-1.87-.84l.69-.88c.29.18.54.35.8.48s.49.21.74.32c.36-1.37.29-1.54-.88-2.08A1.66,1.66,0,0,1,81.7,46.6,1.78,1.78,0,0,1,82.8,45c.36-.17.68-.42,1-.61a.44.44,0,0,1,.34-.05c.69.36,1.37.73,2.14,1.15m-1.9,4.78.31.17c.21-.33.58-.66.57-1s-.47-.51-.89-.93Zm-.65-4.45-.23-.15c-.21.29-.58.57-.58.85s.4.52.63.77l.18-.17Z"/><path class="cls-2" d="M86.32,45.43l-.54.73-1.4-.54c0,.45,0,.78,0,1.1a.72.72,0,0,0,.64.9,1.75,1.75,0,0,1,1.52,1.79c0,.92-.55,1.28-1.59,1.86-.68.38-1,.53-1.65,0a7.25,7.25,0,0,0-1.87-.84l.69-.88c.29.18.54.35.8.48s.49.21.74.32c.36-1.37.29-1.54-.88-2.08A1.66,1.66,0,0,1,81.7,46.6,1.78,1.78,0,0,1,82.8,45c.36-.17.68-.42,1-.61a.44.44,0,0,1,.34-.05C84.87,44.64,85.55,45,86.32,45.43Zm-1.9,4.78.31.17c.21-.33.58-.66.57-1s-.47-.51-.89-.93Zm-.65-4.45-.23-.15c-.21.29-.58.57-.58.85s.4.52.63.77l.18-.17Z"/></g></g></svg>